<?xml version="1.0" encoding="UTF-8" standalone="no"?>
<!DOCTYPE svg PUBLIC "-//W3C//DTD SVG 1.1//EN"
 "http://www.w3.org/Graphics/SVG/1.1/DTD/svg11.dtd">
<!-- Generated by graphviz version 2.47.3 (20210619.1520)
 -->
<!-- Title: dependencies Pages: 1 -->
<svg width="3135pt" height="247pt"
 viewBox="0.00 0.00 3135.00 246.80" xmlns="http://www.w3.org/2000/svg" xmlns:xlink="http://www.w3.org/1999/xlink">
<g id="graph0" class="graph" transform="scale(1 1) rotate(0) translate(4 242.8)">
<title>dependencies</title>
<polygon fill="white" stroke="transparent" points="-4,4 -4,-242.8 3131,-242.8 3131,4 -4,4"/>
<text text-anchor="middle" x="1563.5" y="-8.2" font-family="sans-serif" font-size="14.00">dependencies</text>
<g id="clust1" class="cluster">
<title>cluster_SharedModule</title>
<polygon fill="none" stroke="black" stroke-dasharray="1,5" points="8,-32.8 8,-230.8 3119,-230.8 3119,-32.8 8,-32.8"/>
</g>
<g id="clust20" class="cluster">
<title>cluster_SharedModule_providers</title>
<polygon fill="none" stroke="black" points="2528,-40.8 2528,-92.8 3111,-92.8 3111,-40.8 2528,-40.8"/>
</g>
<g id="clust18" class="cluster">
<title>cluster_SharedModule_exports</title>
<polygon fill="none" stroke="black" points="583,-170.8 583,-222.8 2576,-222.8 2576,-170.8 583,-170.8"/>
</g>
<g id="clust2" class="cluster">
<title>cluster_SharedModule_declarations</title>
<polygon fill="none" stroke="black" points="146,-40.8 146,-92.8 2520,-92.8 2520,-40.8 146,-40.8"/>
</g>
<g id="clust17" class="cluster">
<title>cluster_SharedModule_imports</title>
<polygon fill="none" stroke="black" points="16,-40.8 16,-92.8 138,-92.8 138,-40.8 16,-40.8"/>
</g>
<!-- AccessModalComponent -->
<g id="node1" class="node">
<title>AccessModalComponent</title>
<polygon fill="#ffffb3" stroke="black" points="2511.52,-84.8 2354.48,-84.8 2354.48,-48.8 2511.52,-48.8 2511.52,-84.8"/>
<text text-anchor="middle" x="2433" y="-62.6" font-family="Times,serif" font-size="14.00">AccessModalComponent</text>
</g>
<!-- SharedModule -->
<g id="node15" class="node">
<title>SharedModule</title>
<polygon fill="#8dd3c7" stroke="black" points="1641.42,-149.8 1638.42,-153.8 1617.42,-153.8 1614.42,-149.8 1542.58,-149.8 1542.58,-113.8 1641.42,-113.8 1641.42,-149.8"/>
<text text-anchor="middle" x="1592" y="-127.6" font-family="Times,serif" font-size="14.00">SharedModule</text>
</g>
<!-- AccessModalComponent&#45;&gt;SharedModule -->
<g id="edge1" class="edge">
<title>AccessModalComponent&#45;&gt;SharedModule</title>
<path fill="none" stroke="black" d="M2371.35,-84.82C2371.35,-102.17 2371.35,-125.8 2371.35,-125.8 2371.35,-125.8 1651.34,-125.8 1651.34,-125.8"/>
<polygon fill="black" stroke="black" points="1651.34,-122.3 1641.34,-125.8 1651.34,-129.3 1651.34,-122.3"/>
</g>
<!-- ChallengeListComponent -->
<g id="node2" class="node">
<title>ChallengeListComponent</title>
<polygon fill="#ffffb3" stroke="black" points="2335.87,-84.8 2176.13,-84.8 2176.13,-48.8 2335.87,-48.8 2335.87,-84.8"/>
<text text-anchor="middle" x="2256" y="-62.6" font-family="Times,serif" font-size="14.00">ChallengeListComponent</text>
</g>
<!-- ChallengeListComponent&#45;&gt;SharedModule -->
<g id="edge2" class="edge">
<title>ChallengeListComponent&#45;&gt;SharedModule</title>
<path fill="none" stroke="black" d="M2198.05,-84.84C2198.05,-101.53 2198.05,-123.8 2198.05,-123.8 2198.05,-123.8 1651.34,-123.8 1651.34,-123.8"/>
<polygon fill="black" stroke="black" points="1651.34,-120.3 1641.34,-123.8 1651.34,-127.3 1651.34,-120.3"/>
</g>
<!-- ErrorModalComponent -->
<g id="node3" class="node">
<title>ErrorModalComponent</title>
<polygon fill="#ffffb3" stroke="black" points="2157.92,-84.8 2010.08,-84.8 2010.08,-48.8 2157.92,-48.8 2157.92,-84.8"/>
<text text-anchor="middle" x="2084" y="-62.6" font-family="Times,serif" font-size="14.00">ErrorModalComponent</text>
</g>
<!-- ErrorModalComponent&#45;&gt;SharedModule -->
<g id="edge3" class="edge">
<title>ErrorModalComponent&#45;&gt;SharedModule</title>
<path fill="none" stroke="black" d="M2042.95,-84.81C2042.95,-100.85 2042.95,-121.8 2042.95,-121.8 2042.95,-121.8 1651.55,-121.8 1651.55,-121.8"/>
<polygon fill="black" stroke="black" points="1651.55,-118.3 1641.55,-121.8 1651.55,-125.3 1651.55,-118.3"/>
</g>
<!-- GunlistComponent -->
<g id="node4" class="node">
<title>GunlistComponent</title>
<polygon fill="#ffffb3" stroke="black" points="1992.06,-84.8 1869.94,-84.8 1869.94,-48.8 1992.06,-48.8 1992.06,-84.8"/>
<text text-anchor="middle" x="1931" y="-62.6" font-family="Times,serif" font-size="14.00">GunlistComponent</text>
</g>
<!-- GunlistComponent&#45;&gt;SharedModule -->
<g id="edge4" class="edge">
<title>GunlistComponent&#45;&gt;SharedModule</title>
<path fill="none" stroke="black" d="M1886.98,-84.99C1886.98,-99.98 1886.98,-118.8 1886.98,-118.8 1886.98,-118.8 1651.37,-118.8 1651.37,-118.8"/>
<polygon fill="black" stroke="black" points="1651.37,-115.3 1641.37,-118.8 1651.37,-122.3 1651.37,-115.3"/>
</g>
<!-- MakeItNormalTextPipe -->
<g id="node5" class="node">
<title>MakeItNormalTextPipe</title>
<polygon fill="#ffffb3" stroke="black" points="1851.73,-84.8 1702.27,-84.8 1702.27,-48.8 1851.73,-48.8 1851.73,-84.8"/>
<text text-anchor="middle" x="1777" y="-62.6" font-family="Times,serif" font-size="14.00">MakeItNormalTextPipe</text>
</g>
<!-- MakeItNormalTextPipe&#45;&gt;SharedModule -->
<g id="edge5" class="edge">
<title>MakeItNormalTextPipe&#45;&gt;SharedModule</title>
<path fill="none" stroke="black" d="M1738.93,-84.85C1738.93,-99.17 1738.93,-116.8 1738.93,-116.8 1738.93,-116.8 1651.33,-116.8 1651.33,-116.8"/>
<polygon fill="black" stroke="black" points="1651.33,-113.3 1641.33,-116.8 1651.33,-120.3 1651.33,-113.3"/>
</g>
<!-- NewTargetDesignComponent -->
<g id="node6" class="node">
<title>NewTargetDesignComponent</title>
<polygon fill="#ffffb3" stroke="black" points="1683.95,-84.8 1500.05,-84.8 1500.05,-48.8 1683.95,-48.8 1683.95,-84.8"/>
<text text-anchor="middle" x="1592" y="-62.6" font-family="Times,serif" font-size="14.00">NewTargetDesignComponent</text>
</g>
<!-- NewTargetDesignComponent&#45;&gt;SharedModule -->
<g id="edge6" class="edge">
<title>NewTargetDesignComponent&#45;&gt;SharedModule</title>
<path fill="none" stroke="black" d="M1592,-84.91C1592,-84.91 1592,-103.79 1592,-103.79"/>
<polygon fill="black" stroke="black" points="1588.5,-103.79 1592,-113.79 1595.5,-103.79 1588.5,-103.79"/>
</g>
<!-- NoConnetionErroComponent -->
<g id="node7" class="node">
<title>NoConnetionErroComponent</title>
<polygon fill="#ffffb3" stroke="black" points="1481.65,-84.8 1300.35,-84.8 1300.35,-48.8 1481.65,-48.8 1481.65,-84.8"/>
<text text-anchor="middle" x="1391" y="-62.6" font-family="Times,serif" font-size="14.00">NoConnetionErroComponent</text>
</g>
<!-- NoConnetionErroComponent&#45;&gt;SharedModule -->
<g id="edge7" class="edge">
<title>NoConnetionErroComponent&#45;&gt;SharedModule</title>
<path fill="none" stroke="black" d="M1458.95,-84.85C1458.95,-99.17 1458.95,-116.8 1458.95,-116.8 1458.95,-116.8 1532.46,-116.8 1532.46,-116.8"/>
<polygon fill="black" stroke="black" points="1532.46,-120.3 1542.46,-116.8 1532.46,-113.3 1532.46,-120.3"/>
</g>
<!-- PaymentComponent -->
<g id="node8" class="node">
<title>PaymentComponent</title>
<polygon fill="#ffffb3" stroke="black" points="1282.33,-84.8 1151.67,-84.8 1151.67,-48.8 1282.33,-48.8 1282.33,-84.8"/>
<text text-anchor="middle" x="1217" y="-62.6" font-family="Times,serif" font-size="14.00">PaymentComponent</text>
</g>
<!-- PaymentComponent&#45;&gt;SharedModule -->
<g id="edge8" class="edge">
<title>PaymentComponent&#45;&gt;SharedModule</title>
<path fill="none" stroke="black" d="M1272.19,-84.99C1272.19,-99.98 1272.19,-118.8 1272.19,-118.8 1272.19,-118.8 1532.73,-118.8 1532.73,-118.8"/>
<polygon fill="black" stroke="black" points="1532.73,-122.3 1542.73,-118.8 1532.73,-115.3 1532.73,-122.3"/>
</g>
<!-- SelectTargetComponent -->
<g id="node9" class="node">
<title>SelectTargetComponent</title>
<polygon fill="#ffffb3" stroke="black" points="1134.07,-84.8 981.93,-84.8 981.93,-48.8 1134.07,-48.8 1134.07,-84.8"/>
<text text-anchor="middle" x="1058" y="-62.6" font-family="Times,serif" font-size="14.00">SelectTargetComponent</text>
</g>
<!-- SelectTargetComponent&#45;&gt;SharedModule -->
<g id="edge9" class="edge">
<title>SelectTargetComponent&#45;&gt;SharedModule</title>
<path fill="none" stroke="black" d="M1092.99,-84.81C1092.99,-100.85 1092.99,-121.8 1092.99,-121.8 1092.99,-121.8 1532.79,-121.8 1532.79,-121.8"/>
<polygon fill="black" stroke="black" points="1532.79,-125.3 1542.79,-121.8 1532.79,-118.3 1532.79,-125.3"/>
</g>
<!-- SelectTargetModalComponent -->
<g id="node10" class="node">
<title>SelectTargetModalComponent</title>
<polygon fill="#ffffb3" stroke="black" points="964.12,-84.8 775.88,-84.8 775.88,-48.8 964.12,-48.8 964.12,-84.8"/>
<text text-anchor="middle" x="870" y="-62.6" font-family="Times,serif" font-size="14.00">SelectTargetModalComponent</text>
</g>
<!-- SelectTargetModalComponent&#45;&gt;SharedModule -->
<g id="edge10" class="edge">
<title>SelectTargetModalComponent&#45;&gt;SharedModule</title>
<path fill="none" stroke="black" d="M933.28,-84.84C933.28,-101.53 933.28,-123.8 933.28,-123.8 933.28,-123.8 1532.76,-123.8 1532.76,-123.8"/>
<polygon fill="black" stroke="black" points="1532.76,-127.3 1542.76,-123.8 1532.76,-120.3 1532.76,-127.3"/>
</g>
<!-- ShareDialogComponent -->
<g id="node11" class="node">
<title>ShareDialogComponent</title>
<polygon fill="#ffffb3" stroke="black" points="757.81,-84.8 606.19,-84.8 606.19,-48.8 757.81,-48.8 757.81,-84.8"/>
<text text-anchor="middle" x="682" y="-62.6" font-family="Times,serif" font-size="14.00">ShareDialogComponent</text>
</g>
<!-- ShareDialogComponent&#45;&gt;SharedModule -->
<g id="edge11" class="edge">
<title>ShareDialogComponent&#45;&gt;SharedModule</title>
<path fill="none" stroke="black" d="M682,-84.82C682,-102.17 682,-125.8 682,-125.8 682,-125.8 1532.75,-125.8 1532.75,-125.8"/>
<polygon fill="black" stroke="black" points="1532.75,-129.3 1542.75,-125.8 1532.75,-122.3 1532.75,-129.3"/>
</g>
<!-- SightlistComponent -->
<g id="node12" class="node">
<title>SightlistComponent</title>
<polygon fill="#ffffb3" stroke="black" points="588.01,-84.8 459.99,-84.8 459.99,-48.8 588.01,-48.8 588.01,-84.8"/>
<text text-anchor="middle" x="524" y="-62.6" font-family="Times,serif" font-size="14.00">SightlistComponent</text>
</g>
<!-- SightlistComponent&#45;&gt;SharedModule -->
<g id="edge12" class="edge">
<title>SightlistComponent&#45;&gt;SharedModule</title>
<path fill="none" stroke="black" d="M524,-85.07C524,-103.36 524,-128.8 524,-128.8 524,-128.8 1532.63,-128.8 1532.63,-128.8"/>
<polygon fill="black" stroke="black" points="1532.63,-132.3 1542.63,-128.8 1532.63,-125.3 1532.63,-132.3"/>
</g>
<!-- Tab3Page -->
<g id="node13" class="node">
<title>Tab3Page</title>
<polygon fill="#ffffb3" stroke="black" points="441.98,-84.8 370.02,-84.8 370.02,-48.8 441.98,-48.8 441.98,-84.8"/>
<text text-anchor="middle" x="406" y="-62.6" font-family="Times,serif" font-size="14.00">Tab3Page</text>
</g>
<!-- Tab3Page&#45;&gt;SharedModule -->
<g id="edge13" class="edge">
<title>Tab3Page&#45;&gt;SharedModule</title>
<path fill="none" stroke="black" d="M406,-84.97C406,-103.89 406,-130.8 406,-130.8 406,-130.8 1532.55,-130.8 1532.55,-130.8"/>
<polygon fill="black" stroke="black" points="1532.55,-134.3 1542.55,-130.8 1532.55,-127.3 1532.55,-134.3"/>
</g>
<!-- TermsAndConditionComponent -->
<g id="node14" class="node">
<title>TermsAndConditionComponent</title>
<polygon fill="#ffffb3" stroke="black" points="351.71,-84.8 154.29,-84.8 154.29,-48.8 351.71,-48.8 351.71,-84.8"/>
<text text-anchor="middle" x="253" y="-62.6" font-family="Times,serif" font-size="14.00">TermsAndConditionComponent</text>
</g>
<!-- TermsAndConditionComponent&#45;&gt;SharedModule -->
<g id="edge14" class="edge">
<title>TermsAndConditionComponent&#45;&gt;SharedModule</title>
<path fill="none" stroke="black" d="M253,-85.11C253,-104.95 253,-133.8 253,-133.8 253,-133.8 1532.76,-133.8 1532.76,-133.8"/>
<polygon fill="black" stroke="black" points="1532.76,-137.3 1542.76,-133.8 1532.76,-130.3 1532.76,-137.3"/>
</g>
<!-- AccessModalComponent  -->
<g id="node17" class="node">
<title>AccessModalComponent </title>
<polygon fill="#fb8072" stroke="black" points="2567.52,-214.8 2406.48,-214.8 2406.48,-178.8 2567.52,-178.8 2567.52,-214.8"/>
<text text-anchor="middle" x="2487" y="-192.6" font-family="Times,serif" font-size="14.00">AccessModalComponent </text>
</g>
<!-- SharedModule&#45;&gt;AccessModalComponent  -->
<g id="edge16" class="edge">
<title>SharedModule&#45;&gt;AccessModalComponent </title>
<path fill="none" stroke="black" stroke-dasharray="5,2" d="M1641.42,-137.8C1825.26,-137.8 2459.12,-137.8 2459.12,-137.8 2459.12,-137.8 2459.12,-168.78 2459.12,-168.78"/>
<polygon fill="black" stroke="black" points="2455.63,-168.78 2459.12,-178.78 2462.63,-168.78 2455.63,-168.78"/>
</g>
<!-- ErrorModalComponent  -->
<g id="node18" class="node">
<title>ErrorModalComponent </title>
<polygon fill="#fb8072" stroke="black" points="2388.42,-214.8 2237.58,-214.8 2237.58,-178.8 2388.42,-178.8 2388.42,-214.8"/>
<text text-anchor="middle" x="2313" y="-192.6" font-family="Times,serif" font-size="14.00">ErrorModalComponent </text>
</g>
<!-- SharedModule&#45;&gt;ErrorModalComponent  -->
<g id="edge17" class="edge">
<title>SharedModule&#45;&gt;ErrorModalComponent </title>
<path fill="none" stroke="black" stroke-dasharray="5,2" d="M1641.41,-140.8C1800.13,-140.8 2286.74,-140.8 2286.74,-140.8 2286.74,-140.8 2286.74,-168.77 2286.74,-168.77"/>
<polygon fill="black" stroke="black" points="2283.24,-168.77 2286.74,-178.77 2290.24,-168.77 2283.24,-168.77"/>
</g>
<!-- GunlistComponent  -->
<g id="node19" class="node">
<title>GunlistComponent </title>
<polygon fill="#fb8072" stroke="black" points="2220.06,-214.8 2093.94,-214.8 2093.94,-178.8 2220.06,-178.8 2220.06,-214.8"/>
<text text-anchor="middle" x="2157" y="-192.6" font-family="Times,serif" font-size="14.00">GunlistComponent </text>
</g>
<!-- SharedModule&#45;&gt;GunlistComponent  -->
<g id="edge18" class="edge">
<title>SharedModule&#45;&gt;GunlistComponent </title>
<path fill="none" stroke="black" stroke-dasharray="5,2" d="M1641.27,-142.8C1773.42,-142.8 2125.84,-142.8 2125.84,-142.8 2125.84,-142.8 2125.84,-168.52 2125.84,-168.52"/>
<polygon fill="black" stroke="black" points="2122.34,-168.52 2125.84,-178.52 2129.34,-168.52 2122.34,-168.52"/>
</g>
<!-- MakeItNormalTextPipe  -->
<g id="node20" class="node">
<title>MakeItNormalTextPipe </title>
<polygon fill="#fb8072" stroke="black" points="2075.73,-214.8 1922.27,-214.8 1922.27,-178.8 2075.73,-178.8 2075.73,-214.8"/>
<text text-anchor="middle" x="1999" y="-192.6" font-family="Times,serif" font-size="14.00">MakeItNormalTextPipe </text>
</g>
<!-- SharedModule&#45;&gt;MakeItNormalTextPipe  -->
<g id="edge19" class="edge">
<title>SharedModule&#45;&gt;MakeItNormalTextPipe </title>
<path fill="none" stroke="black" stroke-dasharray="5,2" d="M1641.27,-145.8C1740.99,-145.8 1957.33,-145.8 1957.33,-145.8 1957.33,-145.8 1957.33,-168.68 1957.33,-168.68"/>
<polygon fill="black" stroke="black" points="1953.83,-168.68 1957.33,-178.68 1960.83,-168.68 1953.83,-168.68"/>
</g>
<!-- MaterialModule  -->
<g id="node21" class="node">
<title>MaterialModule </title>
<polygon fill="#fb8072" stroke="black" points="1904.47,-214.8 1793.53,-214.8 1793.53,-178.8 1904.47,-178.8 1904.47,-214.8"/>
<text text-anchor="middle" x="1849" y="-192.6" font-family="Times,serif" font-size="14.00">MaterialModule </text>
</g>
<!-- SharedModule&#45;&gt;MaterialModule  -->
<g id="edge20" class="edge">
<title>SharedModule&#45;&gt;MaterialModule </title>
<path fill="none" stroke="black" stroke-dasharray="5,2" d="M1641.23,-147.8C1709.02,-147.8 1822.82,-147.8 1822.82,-147.8 1822.82,-147.8 1822.82,-168.55 1822.82,-168.55"/>
<polygon fill="black" stroke="black" points="1819.32,-168.55 1822.82,-178.55 1826.32,-168.55 1819.32,-168.55"/>
</g>
<!-- NewTargetDesignComponent  -->
<g id="node22" class="node">
<title>NewTargetDesignComponent </title>
<polygon fill="#fb8072" stroke="black" points="1775.95,-214.8 1588.05,-214.8 1588.05,-178.8 1775.95,-178.8 1775.95,-214.8"/>
<text text-anchor="middle" x="1682" y="-192.6" font-family="Times,serif" font-size="14.00">NewTargetDesignComponent </text>
</g>
<!-- SharedModule&#45;&gt;NewTargetDesignComponent  -->
<g id="edge21" class="edge">
<title>SharedModule&#45;&gt;NewTargetDesignComponent </title>
<path fill="none" stroke="black" stroke-dasharray="5,2" d="M1614.74,-149.91C1614.74,-149.91 1614.74,-168.79 1614.74,-168.79"/>
<polygon fill="black" stroke="black" points="1611.24,-168.79 1614.74,-178.79 1618.24,-168.79 1611.24,-168.79"/>
</g>
<!-- PaymentComponent  -->
<g id="node23" class="node">
<title>PaymentComponent </title>
<polygon fill="#fb8072" stroke="black" points="1569.83,-214.8 1436.17,-214.8 1436.17,-178.8 1569.83,-178.8 1569.83,-214.8"/>
<text text-anchor="middle" x="1503" y="-192.6" font-family="Times,serif" font-size="14.00">PaymentComponent </text>
</g>
<!-- SharedModule&#45;&gt;PaymentComponent  -->
<g id="edge22" class="edge">
<title>SharedModule&#45;&gt;PaymentComponent </title>
<path fill="none" stroke="black" stroke-dasharray="5,2" d="M1556.35,-149.91C1556.35,-149.91 1556.35,-168.79 1556.35,-168.79"/>
<polygon fill="black" stroke="black" points="1552.85,-168.79 1556.35,-178.79 1559.85,-168.79 1552.85,-168.79"/>
</g>
<!-- SelectTargetComponent  -->
<g id="node24" class="node">
<title>SelectTargetComponent </title>
<polygon fill="#fb8072" stroke="black" points="1417.57,-214.8 1262.43,-214.8 1262.43,-178.8 1417.57,-178.8 1417.57,-214.8"/>
<text text-anchor="middle" x="1340" y="-192.6" font-family="Times,serif" font-size="14.00">SelectTargetComponent </text>
</g>
<!-- SharedModule&#45;&gt;SelectTargetComponent  -->
<g id="edge23" class="edge">
<title>SharedModule&#45;&gt;SelectTargetComponent </title>
<path fill="none" stroke="black" stroke-dasharray="5,2" d="M1542.58,-147.8C1474.18,-147.8 1358.98,-147.8 1358.98,-147.8 1358.98,-147.8 1358.98,-168.55 1358.98,-168.55"/>
<polygon fill="black" stroke="black" points="1355.48,-168.55 1358.98,-178.55 1362.48,-168.55 1355.48,-168.55"/>
</g>
<!-- SelectTargetModalComponent  -->
<g id="node25" class="node">
<title>SelectTargetModalComponent </title>
<polygon fill="#fb8072" stroke="black" points="1244.12,-214.8 1051.88,-214.8 1051.88,-178.8 1244.12,-178.8 1244.12,-214.8"/>
<text text-anchor="middle" x="1148" y="-192.6" font-family="Times,serif" font-size="14.00">SelectTargetModalComponent </text>
</g>
<!-- SharedModule&#45;&gt;SelectTargetModalComponent  -->
<g id="edge24" class="edge">
<title>SharedModule&#45;&gt;SelectTargetModalComponent </title>
<path fill="none" stroke="black" stroke-dasharray="5,2" d="M1542.49,-145.8C1436.66,-145.8 1197.95,-145.8 1197.95,-145.8 1197.95,-145.8 1197.95,-168.68 1197.95,-168.68"/>
<polygon fill="black" stroke="black" points="1194.45,-168.68 1197.95,-178.68 1201.45,-168.68 1194.45,-168.68"/>
</g>
<!-- SightlistComponent  -->
<g id="node26" class="node">
<title>SightlistComponent </title>
<polygon fill="#fb8072" stroke="black" points="1033.51,-214.8 902.49,-214.8 902.49,-178.8 1033.51,-178.8 1033.51,-214.8"/>
<text text-anchor="middle" x="968" y="-192.6" font-family="Times,serif" font-size="14.00">SightlistComponent </text>
</g>
<!-- SharedModule&#45;&gt;SightlistComponent  -->
<g id="edge25" class="edge">
<title>SharedModule&#45;&gt;SightlistComponent </title>
<path fill="none" stroke="black" stroke-dasharray="5,2" d="M1542.7,-142.8C1401.87,-142.8 1007.86,-142.8 1007.86,-142.8 1007.86,-142.8 1007.86,-168.52 1007.86,-168.52"/>
<polygon fill="black" stroke="black" points="1004.36,-168.52 1007.86,-178.52 1011.36,-168.52 1004.36,-168.52"/>
</g>
<!-- Tab3Page  -->
<g id="node27" class="node">
<title>Tab3Page </title>
<polygon fill="#fb8072" stroke="black" points="884.98,-214.8 809.02,-214.8 809.02,-178.8 884.98,-178.8 884.98,-214.8"/>
<text text-anchor="middle" x="847" y="-192.6" font-family="Times,serif" font-size="14.00">Tab3Page </text>
</g>
<!-- SharedModule&#45;&gt;Tab3Page  -->
<g id="edge26" class="edge">
<title>SharedModule&#45;&gt;Tab3Page </title>
<path fill="none" stroke="black" stroke-dasharray="5,2" d="M1542.54,-140.8C1376.15,-140.8 847,-140.8 847,-140.8 847,-140.8 847,-168.77 847,-168.77"/>
<polygon fill="black" stroke="black" points="843.5,-168.77 847,-178.77 850.5,-168.77 843.5,-168.77"/>
</g>
<!-- TermsAndConditionComponent  -->
<g id="node28" class="node">
<title>TermsAndConditionComponent </title>
<polygon fill="#fb8072" stroke="black" points="791.21,-214.8 590.79,-214.8 590.79,-178.8 791.21,-178.8 791.21,-214.8"/>
<text text-anchor="middle" x="691" y="-192.6" font-family="Times,serif" font-size="14.00">TermsAndConditionComponent </text>
</g>
<!-- SharedModule&#45;&gt;TermsAndConditionComponent  -->
<g id="edge27" class="edge">
<title>SharedModule&#45;&gt;TermsAndConditionComponent </title>
<path fill="none" stroke="black" stroke-dasharray="5,2" d="M1542.64,-137.8C1367.11,-137.8 783.52,-137.8 783.52,-137.8 783.52,-137.8 783.52,-168.78 783.52,-168.78"/>
<polygon fill="black" stroke="black" points="780.02,-168.78 783.52,-178.78 787.02,-168.78 780.02,-168.78"/>
</g>
<!-- MaterialModule -->
<g id="node16" class="node">
<title>MaterialModule</title>
<polygon fill="#8dd3c7" stroke="black" points="130.47,-84.8 127.47,-88.8 106.47,-88.8 103.47,-84.8 23.53,-84.8 23.53,-48.8 130.47,-48.8 130.47,-84.8"/>
<text text-anchor="middle" x="77" y="-62.6" font-family="Times,serif" font-size="14.00">MaterialModule</text>
</g>
<!-- MaterialModule&#45;&gt;SharedModule -->
<g id="edge15" class="edge">
<title>MaterialModule&#45;&gt;SharedModule</title>
<path fill="none" stroke="black" d="M77,-84.93C77,-105.37 77,-135.8 77,-135.8 77,-135.8 1532.45,-135.8 1532.45,-135.8"/>
<polygon fill="black" stroke="black" points="1532.45,-139.3 1542.45,-135.8 1532.45,-132.3 1532.45,-139.3"/>
</g>
<!-- ApiService -->
<g id="node29" class="node">
<title>ApiService</title>
<ellipse fill="#fdb462" stroke="black" cx="3049" cy="-66.8" rx="54.45" ry="18"/>
<text text-anchor="middle" x="3049" y="-62.6" font-family="Times,serif" font-size="14.00">ApiService</text>
</g>
<!-- ApiService&#45;&gt;SharedModule -->
<g id="edge28" class="edge">
<title>ApiService&#45;&gt;SharedModule</title>
<path fill="none" stroke="black" d="M3049,-84.93C3049,-105.37 3049,-135.8 3049,-135.8 3049,-135.8 1651.31,-135.8 1651.31,-135.8"/>
<polygon fill="black" stroke="black" points="1651.31,-132.3 1641.31,-135.8 1651.31,-139.3 1651.31,-132.3"/>
</g>
<!-- HitNohitService -->
<g id="node30" class="node">
<title>HitNohitService</title>
<ellipse fill="#fdb462" stroke="black" cx="2902" cy="-66.8" rx="74.15" ry="18"/>
<text text-anchor="middle" x="2902" y="-62.6" font-family="Times,serif" font-size="14.00">HitNohitService</text>
</g>
<!-- HitNohitService&#45;&gt;SharedModule -->
<g id="edge29" class="edge">
<title>HitNohitService&#45;&gt;SharedModule</title>
<path fill="none" stroke="black" d="M2902,-85.11C2902,-104.95 2902,-133.8 2902,-133.8 2902,-133.8 1651.36,-133.8 1651.36,-133.8"/>
<polygon fill="black" stroke="black" points="1651.36,-130.3 1641.36,-133.8 1651.36,-137.3 1651.36,-130.3"/>
</g>
<!-- StorageService -->
<g id="node31" class="node">
<title>StorageService</title>
<ellipse fill="#fdb462" stroke="black" cx="2740" cy="-66.8" rx="69.48" ry="18"/>
<text text-anchor="middle" x="2740" y="-62.6" font-family="Times,serif" font-size="14.00">StorageService</text>
</g>
<!-- StorageService&#45;&gt;SharedModule -->
<g id="edge30" class="edge">
<title>StorageService&#45;&gt;SharedModule</title>
<path fill="none" stroke="black" d="M2740,-84.97C2740,-103.89 2740,-130.8 2740,-130.8 2740,-130.8 1651.33,-130.8 1651.33,-130.8"/>
<polygon fill="black" stroke="black" points="1651.33,-127.3 1641.33,-130.8 1651.33,-134.3 1651.33,-127.3"/>
</g>
<!-- UserService -->
<g id="node32" class="node">
<title>UserService</title>
<ellipse fill="#fdb462" stroke="black" cx="2594" cy="-66.8" rx="58.44" ry="18"/>
<text text-anchor="middle" x="2594" y="-62.6" font-family="Times,serif" font-size="14.00">UserService</text>
</g>
<!-- UserService&#45;&gt;SharedModule -->
<g id="edge31" class="edge">
<title>UserService&#45;&gt;SharedModule</title>
<path fill="none" stroke="black" d="M2551.65,-79.35C2551.65,-97.46 2551.65,-128.8 2551.65,-128.8 2551.65,-128.8 1651.24,-128.8 1651.24,-128.8"/>
<polygon fill="black" stroke="black" points="1651.24,-125.3 1641.24,-128.8 1651.24,-132.3 1651.24,-125.3"/>
</g>
</g>
</svg>
