<?xml version="1.0" encoding="UTF-8" standalone="no"?>
<!DOCTYPE svg PUBLIC "-//W3C//DTD SVG 1.1//EN"
 "http://www.w3.org/Graphics/SVG/1.1/DTD/svg11.dtd">
<!-- Generated by graphviz version 2.47.3 (20210619.1520)
 -->
<!-- Title: dependencies Pages: 1 -->
<svg width="814pt" height="247pt"
 viewBox="0.00 0.00 814.00 246.80" xmlns="http://www.w3.org/2000/svg" xmlns:xlink="http://www.w3.org/1999/xlink">
<g id="graph0" class="graph" transform="scale(1 1) rotate(0) translate(4 242.8)">
<title>dependencies</title>
<polygon fill="white" stroke="transparent" points="-4,4 -4,-242.8 810,-242.8 810,4 -4,4"/>
<text text-anchor="middle" x="403" y="-8.2" font-family="sans-serif" font-size="14.00">dependencies</text>
<g id="clust1" class="cluster">
<title>cluster_Tab1PageModule</title>
<polygon fill="none" stroke="black" stroke-dasharray="1,5" points="8,-32.8 8,-230.8 798,-230.8 798,-32.8 8,-32.8"/>
</g>
<g id="clust2" class="cluster">
<title>cluster_Tab1PageModule_declarations</title>
<polygon fill="none" stroke="black" points="514,-40.8 514,-92.8 790,-92.8 790,-40.8 514,-40.8"/>
</g>
<g id="clust6" class="cluster">
<title>cluster_Tab1PageModule_exports</title>
<polygon fill="none" stroke="black" points="345,-170.8 345,-222.8 437,-222.8 437,-170.8 345,-170.8"/>
</g>
<g id="clust5" class="cluster">
<title>cluster_Tab1PageModule_imports</title>
<polygon fill="none" stroke="black" points="160,-40.8 160,-92.8 506,-92.8 506,-40.8 160,-40.8"/>
</g>
<g id="clust8" class="cluster">
<title>cluster_Tab1PageModule_providers</title>
<polygon fill="none" stroke="black" points="16,-40.8 16,-92.8 152,-92.8 152,-40.8 16,-40.8"/>
</g>
<!-- ActivityHistoryComponent -->
<g id="node1" class="node">
<title>ActivityHistoryComponent</title>
<polygon fill="#ffffb3" stroke="black" points="781.71,-84.8 612.29,-84.8 612.29,-48.8 781.71,-48.8 781.71,-84.8"/>
<text text-anchor="middle" x="697" y="-62.6" font-family="Times,serif" font-size="14.00">ActivityHistoryComponent</text>
</g>
<!-- Tab1PageModule -->
<g id="node3" class="node">
<title>Tab1PageModule</title>
<polygon fill="#8dd3c7" stroke="black" points="448.53,-149.8 445.53,-153.8 424.53,-153.8 421.53,-149.8 333.47,-149.8 333.47,-113.8 448.53,-113.8 448.53,-149.8"/>
<text text-anchor="middle" x="391" y="-127.6" font-family="Times,serif" font-size="14.00">Tab1PageModule</text>
</g>
<!-- ActivityHistoryComponent&#45;&gt;Tab1PageModule -->
<g id="edge1" class="edge">
<title>ActivityHistoryComponent&#45;&gt;Tab1PageModule</title>
<path fill="none" stroke="black" d="M697,-85.08C697,-106.12 697,-137.8 697,-137.8 697,-137.8 458.56,-137.8 458.56,-137.8"/>
<polygon fill="black" stroke="black" points="458.56,-134.3 448.56,-137.8 458.56,-141.3 458.56,-134.3"/>
</g>
<!-- Tab1Page -->
<g id="node2" class="node">
<title>Tab1Page</title>
<polygon fill="#ffffb3" stroke="black" points="593.98,-84.8 522.02,-84.8 522.02,-48.8 593.98,-48.8 593.98,-84.8"/>
<text text-anchor="middle" x="558" y="-62.6" font-family="Times,serif" font-size="14.00">Tab1Page</text>
</g>
<!-- Tab1Page&#45;&gt;Tab1PageModule -->
<g id="edge2" class="edge">
<title>Tab1Page&#45;&gt;Tab1PageModule</title>
<path fill="none" stroke="black" d="M558,-84.82C558,-102.17 558,-125.8 558,-125.8 558,-125.8 458.94,-125.8 458.94,-125.8"/>
<polygon fill="black" stroke="black" points="458.94,-122.3 448.94,-125.8 458.94,-129.3 458.94,-122.3"/>
</g>
<!-- Tab1Page  -->
<g id="node7" class="node">
<title>Tab1Page </title>
<polygon fill="#fb8072" stroke="black" points="428.98,-214.8 353.02,-214.8 353.02,-178.8 428.98,-178.8 428.98,-214.8"/>
<text text-anchor="middle" x="391" y="-192.6" font-family="Times,serif" font-size="14.00">Tab1Page </text>
</g>
<!-- Tab1PageModule&#45;&gt;Tab1Page  -->
<g id="edge6" class="edge">
<title>Tab1PageModule&#45;&gt;Tab1Page </title>
<path fill="none" stroke="black" stroke-dasharray="5,2" d="M391,-149.91C391,-149.91 391,-168.79 391,-168.79"/>
<polygon fill="black" stroke="black" points="387.5,-168.79 391,-178.79 394.5,-168.79 387.5,-168.79"/>
</g>
<!-- SharedModule -->
<g id="node4" class="node">
<title>SharedModule</title>
<polygon fill="#8dd3c7" stroke="black" points="498.42,-84.8 495.42,-88.8 474.42,-88.8 471.42,-84.8 399.58,-84.8 399.58,-48.8 498.42,-48.8 498.42,-84.8"/>
<text text-anchor="middle" x="449" y="-62.6" font-family="Times,serif" font-size="14.00">SharedModule</text>
</g>
<!-- SharedModule&#45;&gt;Tab1PageModule -->
<g id="edge3" class="edge">
<title>SharedModule&#45;&gt;Tab1PageModule</title>
<path fill="none" stroke="black" d="M424.28,-84.91C424.28,-84.91 424.28,-103.79 424.28,-103.79"/>
<polygon fill="black" stroke="black" points="420.78,-103.79 424.28,-113.79 427.78,-103.79 420.78,-103.79"/>
</g>
<!-- SigninModule -->
<g id="node5" class="node">
<title>SigninModule</title>
<polygon fill="#8dd3c7" stroke="black" points="382.11,-84.8 379.11,-88.8 358.11,-88.8 355.11,-84.8 285.89,-84.8 285.89,-48.8 382.11,-48.8 382.11,-84.8"/>
<text text-anchor="middle" x="334" y="-62.6" font-family="Times,serif" font-size="14.00">SigninModule</text>
</g>
<!-- SigninModule&#45;&gt;Tab1PageModule -->
<g id="edge4" class="edge">
<title>SigninModule&#45;&gt;Tab1PageModule</title>
<path fill="none" stroke="black" d="M357.65,-84.91C357.65,-84.91 357.65,-103.79 357.65,-103.79"/>
<polygon fill="black" stroke="black" points="354.15,-103.79 357.65,-113.79 361.15,-103.79 354.15,-103.79"/>
</g>
<!-- WizardModule -->
<g id="node6" class="node">
<title>WizardModule</title>
<polygon fill="#8dd3c7" stroke="black" points="268.25,-84.8 265.25,-88.8 244.25,-88.8 241.25,-84.8 167.75,-84.8 167.75,-48.8 268.25,-48.8 268.25,-84.8"/>
<text text-anchor="middle" x="218" y="-62.6" font-family="Times,serif" font-size="14.00">WizardModule</text>
</g>
<!-- WizardModule&#45;&gt;Tab1PageModule -->
<g id="edge5" class="edge">
<title>WizardModule&#45;&gt;Tab1PageModule</title>
<path fill="none" stroke="black" d="M218,-84.82C218,-102.17 218,-125.8 218,-125.8 218,-125.8 323.39,-125.8 323.39,-125.8"/>
<polygon fill="black" stroke="black" points="323.39,-129.3 333.39,-125.8 323.39,-122.3 323.39,-129.3"/>
</g>
<!-- Tab3Service -->
<g id="node8" class="node">
<title>Tab3Service</title>
<ellipse fill="#fdb462" stroke="black" cx="84" cy="-66.8" rx="59.67" ry="18"/>
<text text-anchor="middle" x="84" y="-62.6" font-family="Times,serif" font-size="14.00">Tab3Service</text>
</g>
<!-- Tab3Service&#45;&gt;Tab1PageModule -->
<g id="edge7" class="edge">
<title>Tab3Service&#45;&gt;Tab1PageModule</title>
<path fill="none" stroke="black" d="M84,-85.08C84,-106.12 84,-137.8 84,-137.8 84,-137.8 323.26,-137.8 323.26,-137.8"/>
<polygon fill="black" stroke="black" points="323.26,-141.3 333.26,-137.8 323.26,-134.3 323.26,-141.3"/>
</g>
</g>
</svg>
