<?xml version="1.0" encoding="UTF-8" standalone="no"?>
<!DOCTYPE svg PUBLIC "-//W3C//DTD SVG 1.1//EN"
 "http://www.w3.org/Graphics/SVG/1.1/DTD/svg11.dtd">
<!-- Generated by graphviz version 2.47.3 (20210619.1520)
 -->
<!-- Title: dependencies Pages: 1 -->
<svg width="381pt" height="174pt"
 viewBox="0.00 0.00 381.00 173.80" xmlns="http://www.w3.org/2000/svg" xmlns:xlink="http://www.w3.org/1999/xlink">
<g id="graph0" class="graph" transform="scale(1 1) rotate(0) translate(4 169.8)">
<title>dependencies</title>
<polygon fill="white" stroke="transparent" points="-4,4 -4,-169.8 377,-169.8 377,4 -4,4"/>
<text text-anchor="middle" x="186.5" y="-8.2" font-family="sans-serif" font-size="14.00">dependencies</text>
<g id="clust1" class="cluster">
<title>cluster_AuthModule</title>
<polygon fill="none" stroke="black" stroke-dasharray="1,5" points="8,-32.8 8,-157.8 365,-157.8 365,-32.8 8,-32.8"/>
</g>
<g id="clust3" class="cluster">
<title>cluster_AuthModule_imports</title>
<polygon fill="none" stroke="black" points="16,-40.8 16,-92.8 357,-92.8 357,-40.8 16,-40.8"/>
</g>
<!-- AuthRouting -->
<g id="node1" class="node">
<title>AuthRouting</title>
<polygon fill="#8dd3c7" stroke="black" points="348.62,-84.8 345.62,-88.8 324.62,-88.8 321.62,-84.8 259.38,-84.8 259.38,-48.8 348.62,-48.8 348.62,-84.8"/>
<text text-anchor="middle" x="304" y="-62.6" font-family="Times,serif" font-size="14.00">AuthRouting</text>
</g>
<!-- AuthModule -->
<g id="node4" class="node">
<title>AuthModule</title>
<polygon fill="#8dd3c7" stroke="black" points="235.55,-149.8 232.55,-153.8 211.55,-153.8 208.55,-149.8 148.45,-149.8 148.45,-113.8 235.55,-113.8 235.55,-149.8"/>
<text text-anchor="middle" x="192" y="-127.6" font-family="Times,serif" font-size="14.00">AuthModule</text>
</g>
<!-- AuthRouting&#45;&gt;AuthModule -->
<g id="edge1" class="edge">
<title>AuthRouting&#45;&gt;AuthModule</title>
<path fill="none" stroke="black" d="M304,-84.91C304,-104.14 304,-131.8 304,-131.8 304,-131.8 245.62,-131.8 245.62,-131.8"/>
<polygon fill="black" stroke="black" points="245.62,-128.3 235.62,-131.8 245.62,-135.3 245.62,-128.3"/>
</g>
<!-- SharedModule -->
<g id="node2" class="node">
<title>SharedModule</title>
<polygon fill="#8dd3c7" stroke="black" points="241.42,-84.8 238.42,-88.8 217.42,-88.8 214.42,-84.8 142.58,-84.8 142.58,-48.8 241.42,-48.8 241.42,-84.8"/>
<text text-anchor="middle" x="192" y="-62.6" font-family="Times,serif" font-size="14.00">SharedModule</text>
</g>
<!-- SharedModule&#45;&gt;AuthModule -->
<g id="edge2" class="edge">
<title>SharedModule&#45;&gt;AuthModule</title>
<path fill="none" stroke="black" d="M192,-84.91C192,-84.91 192,-103.79 192,-103.79"/>
<polygon fill="black" stroke="black" points="188.5,-103.79 192,-113.79 195.5,-103.79 188.5,-103.79"/>
</g>
<!-- WizardModule -->
<g id="node3" class="node">
<title>WizardModule</title>
<polygon fill="#8dd3c7" stroke="black" points="124.25,-84.8 121.25,-88.8 100.25,-88.8 97.25,-84.8 23.75,-84.8 23.75,-48.8 124.25,-48.8 124.25,-84.8"/>
<text text-anchor="middle" x="74" y="-62.6" font-family="Times,serif" font-size="14.00">WizardModule</text>
</g>
<!-- WizardModule&#45;&gt;AuthModule -->
<g id="edge3" class="edge">
<title>WizardModule&#45;&gt;AuthModule</title>
<path fill="none" stroke="black" d="M74,-84.91C74,-104.14 74,-131.8 74,-131.8 74,-131.8 138.4,-131.8 138.4,-131.8"/>
<polygon fill="black" stroke="black" points="138.4,-135.3 148.4,-131.8 138.4,-128.3 138.4,-135.3"/>
</g>
</g>
</svg>
