<svg id="Layer_1" data-name="Layer 1" xmlns="http://www.w3.org/2000/svg" viewBox="0 0 17.84 17.85"><title>002-home</title><path id="_002-home" data-name=" 002-home" d="M17.37,7.76h0L10.09.48a1.65,1.65,0,0,0-2.33,0h0L.49,7.76h0a1.64,1.64,0,0,0,1.09,2.8h.34v5.35a1.92,1.92,0,0,0,1.93,1.93H6.68a.52.52,0,0,0,.53-.52h0v-4.2a.87.87,0,0,1,.88-.88H9.77a.87.87,0,0,1,.87.88v4.2a.52.52,0,0,0,.52.52H14a1.92,1.92,0,0,0,1.93-1.92V10.57h.26a1.65,1.65,0,0,0,1.64-1.65,1.6,1.6,0,0,0-.48-1.15Zm-.74,1.59a.61.61,0,0,1-.42.17h-.8a.53.53,0,0,0-.52.53v5.88a.87.87,0,0,1-.88.87H11.69V13.13A1.92,1.92,0,0,0,9.76,11.2H8.08a1.92,1.92,0,0,0-1.92,1.93V16.8H3.84A.87.87,0,0,1,3,15.92V10.05a.53.53,0,0,0-.52-.53h-.8a.6.6,0,0,1-.42-1h0L8.5,1.22a.61.61,0,0,1,.85,0L16.63,8.5h0a.61.61,0,0,1,0,.85Z" transform="translate(0 0)"/></svg>