<svg id="_004-aim" data-name=" 004-aim" xmlns="http://www.w3.org/2000/svg" viewBox="0 0 18 18"><defs><style>.cls-1{fill:#fff;}</style></defs><title>004-aim</title><path id="Path_1182" data-name="Path 1182" class="cls-1" d="M9,16.69A7.69,7.69,0,1,1,16.69,9h0A7.71,7.71,0,0,1,9,16.69ZM9,2.81A6.19,6.19,0,1,0,15.19,9h0A6.2,6.2,0,0,0,9,2.81Z"/><path id="Path_1183" data-name="Path 1183" class="cls-1" d="M9,4.12a.75.75,0,0,1-.75-.74V.75a.75.75,0,0,1,1.5,0V3.38A.75.75,0,0,1,9,4.12Z"/><path id="Path_1184" data-name="Path 1184" class="cls-1" d="M17.25,9.75H14.62a.75.75,0,0,1,0-1.5h2.63a.75.75,0,0,1,0,1.5Z"/><path id="Path_1185" data-name="Path 1185" class="cls-1" d="M9,18a.76.76,0,0,1-.75-.75V14.62a.75.75,0,0,1,1.5,0v2.63A.76.76,0,0,1,9,18Z"/><path id="Path_1186" data-name="Path 1186" class="cls-1" d="M3.38,9.75H.75a.75.75,0,0,1,0-1.5H3.38a.75.75,0,0,1,0,1.5Z"/><path id="Path_1187" data-name="Path 1187" class="cls-1" d="M9,11.25A2.25,2.25,0,1,1,11.25,9,2.25,2.25,0,0,1,9,11.25Zm0-3A.75.75,0,1,0,9.75,9,.76.76,0,0,0,9,8.25Z"/></svg>