<svg xmlns="http://www.w3.org/2000/svg" width="11.985" height="12.002" viewBox="0 0 11.985 12.002">
    <path id="_005-split" fill="#fff" d="M11.985 2.209L9.776 0 7.567 2.209l.663.663 1.078-1.078v1.89a2.354 2.354 0 0 1-.808 1.78L6.66 7.055a3.355 3.355 0 0 0-.671.795 3.2 3.2 0 0 0-.659-.79l-1.84-1.6a2.354 2.354 0 0 1-.813-1.78V1.794l1.078 1.078.663-.663L2.209 0 0 2.209l.663.663L1.74 1.794v1.89a3.291 3.291 0 0 0 1.136 2.488l1.84 1.595a2.346 2.346 0 0 1 .8 1.77V12h.937V9.542a2.36 2.36 0 0 1 .824-1.78l1.832-1.59a3.291 3.291 0 0 0 1.136-2.488v-1.89l1.078 1.078zm0 0" data-name="005-split"/>
</svg>
