<svg id="Layer_1" data-name="Layer 1" xmlns="http://www.w3.org/2000/svg" viewBox="0 0 14 14"><defs><style>.cls-1{fill:none;}</style></defs><title>Connected-icon-2709</title><g id="Connected-icon-2709"><rect id="Rectangle_366" data-name="Rectangle 366" class="cls-1" width="14" height="14"/><path id="iconUnion" d="M2.27,11.65h0a6.38,6.38,0,0,1-.82-1A6.79,6.79,0,0,1,.83,9.56a6.5,6.5,0,0,1,0-5.12,6.7,6.7,0,0,1,.62-1.11,6.36,6.36,0,0,1,.82-1l.09-.08.89,1a5.19,5.19,0,0,0-.12,7.34l.14.13c-.35.35-.68.68-1,1h0Zm9.45,0Zm-1-.94A5.18,5.18,0,0,0,11,3.39l-.13-.13.91-.9a6.83,6.83,0,0,1,.81,1,6.7,6.7,0,0,1,.62,1.11,6.5,6.5,0,0,1,0,5.12,6.79,6.79,0,0,1-.62,1.12,5.85,5.85,0,0,1-.82,1h0Zm-6.56-1Zm0,0a3.8,3.8,0,0,1-.84-4.23,3.85,3.85,0,0,1,.84-1.23l.05-.05L5,5a2.69,2.69,0,0,0-.83,1.94,2.74,2.74,0,0,0,.89,2c-.29.3-.57.58-.83.82Zm5.56,0Zm-.91-.89a2.67,2.67,0,0,0,.09-3.75l.83-.83a3.83,3.83,0,0,1,.84,4.24A4,4,0,0,1,9.75,9.7h0Zm-3-1.89A1.1,1.1,0,1,1,6.94,8h0A1.1,1.1,0,0,1,5.82,6.92Z"/></g></svg>