<svg id="distance" xmlns="http://www.w3.org/2000/svg" viewBox="0 0 18 13.02"><defs><style>.cls-1{fill:#fff;}</style></defs><title>distance (1)</title><path id="Path_1274" data-name="Path 1274" class="cls-1" d="M8,4A4,4,0,0,0,4,0H4A4,4,0,0,0,0,4,5.09,5.09,0,0,0,1.27,7L3.11,9.55A1.84,1.84,0,1,0,5.76,11.7H6.6V10.64H5.76a1.82,1.82,0,0,0-.89-1.09L6.71,7A5,5,0,0,0,8,4ZM4,12a.81.81,0,1,1,.8-.81A.8.8,0,0,1,4,12ZM4,9,2.12,6.41A4.21,4.21,0,0,1,1.05,4,3,3,0,0,1,4,1.05H4A3,3,0,0,1,6.93,4,4.21,4.21,0,0,1,5.86,6.41Z"/><path id="Path_1275" data-name="Path 1275" class="cls-1" d="M4,2.05A1.94,1.94,0,1,0,5.92,4h0A1.94,1.94,0,0,0,4,2.05ZM4,4.87A.88.88,0,1,1,4.87,4h0A.87.87,0,0,1,4,4.87Z"/><path id="Path_1276" data-name="Path 1276" class="cls-1" d="M18,4a4,4,0,0,0-4-4h0a4,4,0,0,0-4,4,5,5,0,0,0,1.27,3l1.84,2.52a1.82,1.82,0,0,0-.89,1.1h-.81v1h.81a1.85,1.85,0,1,0,2.65-2.15L16.73,7A5.09,5.09,0,0,0,18,4Zm-4,8a.8.8,0,0,1-.8-.8.81.81,0,0,1,.8-.81.8.8,0,0,1,.8.8h0A.81.81,0,0,1,14,12Zm0-3L12.14,6.41A4.09,4.09,0,0,1,11.07,4,3,3,0,0,1,14,1.05h0A3,3,0,0,1,17,4a4.15,4.15,0,0,1-1.07,2.42Z"/><path id="Path_1277" data-name="Path 1277" class="cls-1" d="M14,2.05A1.94,1.94,0,1,0,16,4,1.94,1.94,0,0,0,14,2.05Zm0,2.82A.88.88,0,1,1,14.89,4h0A.87.87,0,0,1,14,4.87Z"/><path id="Path_1278" data-name="Path 1278" class="cls-1" d="M7.35,10.64H8.64V11.7H7.35Z"/><path id="Path_1279" data-name="Path 1279" class="cls-1" d="M9.39,10.64h1.29V11.7H9.39Z"/></svg>