<svg version="1.1" xmlns="http://www.w3.org/2000/svg" x="0px" y="0px" viewBox="0 0 1000 1000" enable-background="new 0 0 1000 1000" xml:space="preserve">
<g style="fill:green">
    <path d="M10,657.5V920h980V657.5H10z M955,885H45V692.5h910V885z"/>
    <path d="M552.4,465h122v35h-122V465z M446.9,465h-86.4v35h86.4V465z M779.9,465h141.8L990,657.5h-45.9L892.7,500H779.9V465z M255,465H78.8L10.5,657.5h46.4L108.3,500H255L255,465L255,465z"/><path d="M640,206v136.5l70,70v210h35V395l-70-70V202.5V185l-175-70v35L640,206z M290,430h35v192.5h-35V430z M482.5,368.8h35v253.7h-35L482.5,368.8z"/><path d="M97.5,727.5h805V745h-805V727.5z M97.5,797.5h35v35h-35V797.5z M430,797.5h472.5v35H430V797.5z"/><path d="M473.7,80c-24.2,0-43.7,19.6-43.7,43.7c0,24.2,19.6,43.7,43.7,43.7s43.7-19.6,43.7-43.7C517.5,99.6,497.9,80,473.7,80z M473.7,150c-14.5,0-26.2-11.8-26.2-26.2s11.8-26.2,26.2-26.2c14.5,0,26.2,11.8,26.2,26.2S488.2,150,473.7,150z"/><path d="M307.5,360c-24.2,0-43.7,19.6-43.7,43.7c0,24.2,19.6,43.7,43.7,43.7c24.2,0,43.7-19.6,43.7-43.7C351.2,379.6,331.7,360,307.5,360z M307.5,430c-14.5,0-26.3-11.8-26.3-26.2c0-14.5,11.8-26.3,26.3-26.3c14.5,0,26.2,11.8,26.2,26.3C333.7,418.3,322,430,307.5,430z"/><path d="M500,290c-24.2,0-43.7,19.6-43.7,43.7c0,24.2,19.6,43.7,43.7,43.7c24.2,0,43.7-19.6,43.7-43.7C543.7,309.6,524.1,290,500,290z M500,360c-14.5,0-26.2-11.8-26.2-26.2s11.8-26.2,26.2-26.2c14.5,0,26.3,11.8,26.3,26.2S514.5,360,500,360z"/>
</g>
</svg>
