<svg id="Layer_1" data-name="Layer 1" xmlns="http://www.w3.org/2000/svg" viewBox="0 0 178 178"><defs><style>.cls-1,.cls-2{fill:none;}.cls-2{stroke:#ce564b;stroke-width:2px;}.cls-3{opacity:0.37;}.cls-4{opacity:0.07;}.cls-5{opacity:0.03;}.cls-6{fill:#ce564b;}</style></defs><title>Group 834</title><g id="Group_834" data-name="Group 834"><g id="Ellipse_26" data-name="Ellipse 26"><circle class="cls-1" cx="88.5" cy="88.5" r="34.5"/><circle class="cls-2" cx="88.5" cy="88.5" r="33.5"/></g><g id="Ellipse_27" data-name="Ellipse 27" class="cls-3"><circle class="cls-1" cx="89" cy="89" r="46"/><circle class="cls-2" cx="89" cy="89" r="45"/></g><g id="Ellipse_28" data-name="Ellipse 28" class="cls-4"><circle class="cls-1" cx="88.5" cy="88.5" r="62.5"/><circle class="cls-2" cx="88.5" cy="88.5" r="61.5"/></g><g id="Ellipse_29" data-name="Ellipse 29" class="cls-5"><circle class="cls-1" cx="89" cy="89" r="89"/><circle class="cls-2" cx="89" cy="89" r="88"/></g><path id="Path_15960" data-name="Path 15960" class="cls-6" d="M89.18,106a1,1,0,0,1-1-1h0V88.63L79.85,97a1,1,0,0,1-1.35,0h0a1,1,0,0,1,0-1.34l9.27-9.3L78.5,77.11a1,1,0,0,1,1.35-1.35h0l8.38,8.41V67.74a1,1,0,0,1,.59-.88,1.16,1.16,0,0,1,.37-.07,1,1,0,0,1,.67.28l9.28,9.28a1,1,0,0,1,0,1.34L90.45,86.4l8.69,8.71a1,1,0,0,1,0,1.35l-9.28,9.28A1,1,0,0,1,89.18,106Zm1-3.26,7-7-7-7Zm0-18.74,7-7-7-7Z"/></g></svg>