<svg id="Layer_1" data-name="Layer 1" xmlns="http://www.w3.org/2000/svg" viewBox="0 0 16 16"><defs><style>.cls-1,.cls-2{fill:none;}.cls-2{stroke:#fff;}</style></defs><title>Group 832</title><g id="Group_832" data-name="Group 832"><g id="Rectangle_1861" data-name="Rectangle 1861"><rect class="cls-1" width="16" height="16" rx="3"/><rect class="cls-2" x="0.5" y="0.5" width="15" height="15" rx="2.5"/></g><g id="Rectangle_1864" data-name="Rectangle 1864"><path class="cls-1" d="M8,2H8a6,6,0,0,1,6,6h0a6,6,0,0,1-6,6H8A6,6,0,0,1,2,8H2A6,6,0,0,1,8,2Z"/><path class="cls-2" d="M8,2.5H8A5.5,5.5,0,0,1,13.5,8h0A5.5,5.5,0,0,1,8,13.5H8A5.5,5.5,0,0,1,2.5,8h0A5.5,5.5,0,0,1,8,2.5Z"/></g><g id="Rectangle_1862" data-name="Rectangle 1862"><path class="cls-1" d="M8,4H8a4,4,0,0,1,4,4h0a4,4,0,0,1-4,4H8A4,4,0,0,1,4,8H4A4,4,0,0,1,8,4Z"/><path class="cls-2" d="M8,4.5H8A3.5,3.5,0,0,1,11.5,8h0A3.5,3.5,0,0,1,8,11.5H8A3.5,3.5,0,0,1,4.5,8h0A3.5,3.5,0,0,1,8,4.5Z"/></g><g id="Rectangle_1863" data-name="Rectangle 1863"><path class="cls-1" d="M8,7H8A1,1,0,0,1,9,8H9A1,1,0,0,1,8,9H8A1,1,0,0,1,7,8H7A1,1,0,0,1,8,7Z"/><path class="cls-2" d="M8,7.5H8a.5.5,0,0,1,.5.5h0a.5.5,0,0,1-.5.5H8A.5.5,0,0,1,7.5,8h0A.5.5,0,0,1,8,7.5Z"/></g></g></svg>