<svg xmlns="http://www.w3.org/2000/svg" width="24" height="24" viewBox="0 0 24 24">
    <g id="Group_768" data-name="Group 768" transform="translate(-24 -190)">
        <rect id="Rectangle_1746" width="24" height="24" fill="#363636" data-name="Rectangle 1746" rx="5" transform="translate(24 190)"/>
        <g id="Connected-icon-2709" transform="translate(-346 183)">
            <path id="Rectangle_366" fill="none" d="M0 0H16V16H0z" data-name="Rectangle 366" transform="translate(374 11)"/>
            <path id="goal" fill="#fff" d="M16.679 4.3l.873-.873a.527.527 0 0 0-.329-.9L15.6 2.4 15.467.777a.527.527 0 0 0-.9-.328l-.873.873A9 9 0 0 0 2.636 15.364 9 9 0 0 0 16.679 4.3zM14.59 2.929a.528.528 0 0 0 .481.481l.929.079-1.258 1.261-1.375-.116-.117-1.376L14.511 2zM10.793 9a1.795 1.795 0 1 1-.955-1.584L8.627 8.627a.527.527 0 1 0 .746.746l1.211-1.211a1.781 1.781 0 0 1 .209.838zM10.6 6.649a2.851 2.851 0 1 0 .746.746l1.506-1.506a4.963 4.963 0 1 1-.746-.746zm4.013 7.969A7.945 7.945 0 1 1 3.382 3.382a7.949 7.949 0 0 1 9.544-1.291l-.595.595a.527.527 0 0 0-.154.359v.058l.071.841a6.017 6.017 0 1 0 1.806 1.806l.841.071h.127l.033-.006.021-.005.032-.01.02-.007.031-.013.019-.009.03-.017.018-.01.03-.022.014-.01a.523.523 0 0 0 .041-.037l.595-.595a7.949 7.949 0 0 1-1.291 9.544zm0 0" transform="translate(373 10)"/>
        </g>
    </g>
</svg>
