<svg id="Layer_1" data-name="Layer 1" xmlns="http://www.w3.org/2000/svg" viewBox="0 0 66.67 80"><defs><style>.cls-1{fill:#ce564b;}</style></defs><title>paper</title><g id="paper"><g id="Group_735" data-name="Group 735"><g id="Group_734" data-name="Group 734"><path id="Path_16025" data-name="Path 16025" class="cls-1" d="M20,57.33H17.33a1.34,1.34,0,0,0,0,2.67H20a1.34,1.34,0,0,0,0-2.67Z"/></g></g><g id="Group_737" data-name="Group 737"><g id="Group_736" data-name="Group 736"><path id="Path_16026" data-name="Path 16026" class="cls-1" d="M57.33,57.33h-32a1.34,1.34,0,0,0,0,2.67h32a1.34,1.34,0,1,0,0-2.67Z"/></g></g><g id="Group_739" data-name="Group 739"><g id="Group_738" data-name="Group 738"><path id="Path_16027" data-name="Path 16027" class="cls-1" d="M20,49.33H17.33a1.34,1.34,0,0,0,0,2.67H20a1.34,1.34,0,0,0,0-2.67Z"/></g></g><g id="Group_741" data-name="Group 741"><g id="Group_740" data-name="Group 740"><path id="Path_16028" data-name="Path 16028" class="cls-1" d="M57.33,49.33h-32a1.34,1.34,0,0,0,0,2.67h32a1.34,1.34,0,1,0,0-2.67Z"/></g></g><g id="Group_743" data-name="Group 743"><g id="Group_742" data-name="Group 742"><path id="Path_16029" data-name="Path 16029" class="cls-1" d="M20,41.33H17.33a1.34,1.34,0,0,0,0,2.67H20a1.34,1.34,0,0,0,0-2.67Z"/></g></g><g id="Group_745" data-name="Group 745"><g id="Group_744" data-name="Group 744"><path id="Path_16030" data-name="Path 16030" class="cls-1" d="M57.33,41.33h-32a1.34,1.34,0,0,0,0,2.67h32a1.34,1.34,0,1,0,0-2.67Z"/></g></g><g id="Group_747" data-name="Group 747"><g id="Group_746" data-name="Group 746"><path id="Path_16031" data-name="Path 16031" class="cls-1" d="M20,33.33H17.33a1.34,1.34,0,0,0,0,2.67H20a1.34,1.34,0,0,0,0-2.67Z"/></g></g><g id="Group_749" data-name="Group 749"><g id="Group_748" data-name="Group 748"><path id="Path_16032" data-name="Path 16032" class="cls-1" d="M57.33,33.33h-32a1.34,1.34,0,0,0,0,2.67h32a1.34,1.34,0,1,0,0-2.67Z"/></g></g><g id="Group_751" data-name="Group 751"><g id="Group_750" data-name="Group 750"><path id="Path_16033" data-name="Path 16033" class="cls-1" d="M20,25.33H17.33a1.34,1.34,0,0,0,0,2.67H20a1.34,1.34,0,0,0,0-2.67Z"/></g></g><g id="Group_753" data-name="Group 753"><g id="Group_752" data-name="Group 752"><path id="Path_16034" data-name="Path 16034" class="cls-1" d="M57.33,25.33h-32a1.34,1.34,0,0,0,0,2.67h32a1.34,1.34,0,1,0,0-2.67Z"/></g></g><g id="Group_755" data-name="Group 755"><g id="Group_754" data-name="Group 754"><path id="Path_16035" data-name="Path 16035" class="cls-1" d="M66.65,19.92a1.36,1.36,0,0,0-.07-.35.56.56,0,0,0,0-.12,1.36,1.36,0,0,0-.27-.39L47.6.39a1.51,1.51,0,0,0-.39-.27l-.13,0A1.28,1.28,0,0,0,46.74,0H9.33A1.34,1.34,0,0,0,8,1.33H8v4H1.33A1.34,1.34,0,0,0,0,6.67H0v72A1.34,1.34,0,0,0,1.33,80h56a1.34,1.34,0,0,0,1.34-1.33h0V72h6.66a1.34,1.34,0,0,0,1.34-1.33h0V20S66.65,19.94,66.65,19.92ZM48,4.55,62.11,18.67H48Zm8,72.78H2.67V8H8V70.67A1.34,1.34,0,0,0,9.33,72H56Zm8-8H10.67V2.67H45.33V20a1.33,1.33,0,0,0,1.34,1.33H64Z"/></g></g><g id="Group_757" data-name="Group 757"><g id="Group_756" data-name="Group 756"><path id="Path_16036" data-name="Path 16036" class="cls-1" d="M25.33,12h-8A1.34,1.34,0,0,0,16,13.33v8a1.34,1.34,0,0,0,1.33,1.34h8a1.34,1.34,0,0,0,1.34-1.34v-8A1.34,1.34,0,0,0,25.33,12ZM24,20H18.67V14.67H24Z"/></g></g></g></svg>