<svg id="_003-account" data-name=" 003-account" xmlns="http://www.w3.org/2000/svg" viewBox="0 0 17.85 17.85"><title>003-account</title><path id="Path_1256" data-name="Path 1256" d="M17.85,8.93a8.93,8.93,0,1,0-8.92,8.92h0a8.92,8.92,0,0,0,8.92-8.91ZM8.93,1.05a7.88,7.88,0,0,1,6.52,12.29,8.91,8.91,0,0,0-12.6-.45c-.16.14-.31.29-.46.45A7.89,7.89,0,0,1,8.93,1.05ZM3.05,14.17a7.88,7.88,0,0,1,11.12-.63q.33.3.63.63a7.87,7.87,0,0,1-11.11.64A6.44,6.44,0,0,1,3.05,14.17Z" transform="translate(0 0)"/><path id="Path_1257" data-name="Path 1257" d="M8.93,9.45a3.14,3.14,0,0,0,3.13-3.14v-1a3.14,3.14,0,0,0-6.27-.11V6.31A3.14,3.14,0,0,0,8.93,9.45ZM6.83,5.26a2.1,2.1,0,0,1,4.19,0v1a2.1,2.1,0,0,1-4.19,0Z" transform="translate(0 0)"/></svg>