<svg id="Layer_1" data-name="Layer 1" xmlns="http://www.w3.org/2000/svg" viewBox="0 0 30.49 24"><defs><style>.cls-1{opacity:0.39;}</style></defs><title>camera</title><g id="camera" class="cls-1"><g id="Group_759" data-name="Group 759"><g id="Group_758" data-name="Group 758"><path id="Path_16038" data-name="Path 16038" d="M29.48,3.74a3.28,3.28,0,0,0-2.41-1H22.26V2.67A2.63,2.63,0,0,0,21.48.78,2.67,2.67,0,0,0,19.59,0H10.9A2.67,2.67,0,0,0,8.2,2.64v.08H3.42A3.28,3.28,0,0,0,1,3.74a3.44,3.44,0,0,0-1,2.4V20.58A3.27,3.27,0,0,0,1,23a3.43,3.43,0,0,0,2.41,1H27.07a3.31,3.31,0,0,0,2.41-1,3.47,3.47,0,0,0,1-2.41V6.14A3.29,3.29,0,0,0,29.48,3.74ZM29,20.58h0a1.88,1.88,0,0,1-1.88,1.88H3.42a1.86,1.86,0,0,1-1.88-1.87h0V6.14A1.87,1.87,0,0,1,3.41,4.26H9a.79.79,0,0,0,.79-.77h0V2.64a1.09,1.09,0,0,1,1-1.13h8.74a1.07,1.07,0,0,1,1.13,1.05v.92a.78.78,0,0,0,.78.78h5.6A1.88,1.88,0,0,1,29,6.14h0Z" transform="translate(0 0)"/><path id="Path_16039" data-name="Path 16039" d="M15.25,6.23a7.14,7.14,0,1,0,5,2.09A7.12,7.12,0,0,0,15.25,6.23Zm3.94,11.1a5.61,5.61,0,0,1-7.89,0,5.53,5.53,0,0,1-1.62-3.94A5.67,5.67,0,0,1,11.3,9.45a5.58,5.58,0,0,1,3.95-1.63,5.66,5.66,0,0,1,3.94,1.63,5.53,5.53,0,0,1,1.62,3.94,5.45,5.45,0,0,1-1.62,3.94Z" transform="translate(0 0)"/><circle id="Ellipse_517" data-name="Ellipse 517" cx="25.57" cy="7.62" r="1.42"/></g></g></g></svg>