<svg xmlns="http://www.w3.org/2000/svg" id="Group_712" width="24" height="24" data-name="Group 712" viewBox="0 0 24 24">
    <defs>
        <style>
            .cls-2{fill:#fff}
        </style>
    </defs>
    <rect id="Rectangle_1748" width="24" height="24" fill="#373737" data-name="Rectangle 1748" rx="5"/>
    <g id="distance_1_" data-name="distance (1)" transform="translate(3 6)">
        <path id="Path_1274" d="M7.983 3.991A4 4 0 0 0 4.021 0h-.03A4 4 0 0 0 0 3.991a5.094 5.094 0 0 0 1.273 3.043l1.84 2.511A1.845 1.845 0 1 0 5.76 11.7h.84v-1.059h-.84a1.853 1.853 0 0 0-.889-1.094L6.71 7.034a5.1 5.1 0 0 0 1.273-3.043zm-3.991 7.974a.8.8 0 1 1 .8-.8.8.8 0 0 1-.8.8zm0-3l-1.87-2.55a4.177 4.177 0 0 1-1.067-2.424 2.94 2.94 0 0 1 2.918-2.936h.018a2.94 2.94 0 0 1 2.938 2.936 4.178 4.178 0 0 1-1.069 2.42zm0 0" class="cls-2" data-name="Path 1274"/>
        <path id="Path_1275" d="M60.367 58.422a1.937 1.937 0 1 0 1.933 1.937 1.939 1.939 0 0 0-1.933-1.937zm0 2.82a.883.883 0 1 1 .883-.883.884.884 0 0 1-.883.883zm0 0" class="cls-2" data-name="Path 1275" transform="translate(-56.376 -56.368)"/>
        <path id="Path_1276" d="M292.905 3.991A4 4 0 0 0 288.943 0h-.03a4 4 0 0 0-3.991 3.991 5.1 5.1 0 0 0 1.273 3.043l1.841 2.511a1.852 1.852 0 0 0-.891 1.1h-.812V11.7h.812a1.846 1.846 0 1 0 2.649-2.15l1.839-2.512a5.1 5.1 0 0 0 1.272-3.047zm-3.992 7.974a.8.8 0 1 1 .8-.8.8.8 0 0 1-.8.8zm0-3l-1.87-2.55a4.178 4.178 0 0 1-1.069-2.419 2.94 2.94 0 0 1 2.926-2.941h.018a2.94 2.94 0 0 1 2.937 2.937 4.177 4.177 0 0 1-1.069 2.419zm0 0" class="cls-2" data-name="Path 1276" transform="translate(-274.905)"/>
        <path id="Path_1277" d="M345.289 58.422a1.937 1.937 0 1 0 1.937 1.937 1.939 1.939 0 0 0-1.937-1.937zm0 2.82a.883.883 0 1 1 .883-.883.884.884 0 0 1-.883.883zm0 0" class="cls-2" data-name="Path 1277" transform="translate(-331.281 -56.368)"/>
        <path id="Path_1278" d="M209.039 302.691h1.288v1.055h-1.288zm0 0" class="cls-2" data-name="Path 1278" transform="translate(-201.69 -292.05)"/>
        <path id="Path_1279" d="M267.039 302.691h1.288v1.055h-1.288zm0 0" class="cls-2" data-name="Path 1279" transform="translate(-257.651 -292.05)"/>
    </g>
</svg>
