<svg id="Layer_1" data-name="Layer 1" xmlns="http://www.w3.org/2000/svg" xmlns:xlink="http://www.w3.org/1999/xlink" viewBox="0 0 24 24"><defs><style>.cls-1{fill:none;}.cls-2{clip-path:url(#clip-path);}.cls-3{opacity:0.5;}</style><clipPath id="clip-path"><rect class="cls-1" width="24" height="24"/></clipPath></defs><title>Icon - Visibility - Filled</title><g class="cls-2"><g id="Icon_Visibility_Filled" data-name="Icon Visibility Filled" class="cls-3"><path id="Path_988" data-name="Path 988" d="M12,5A11.83,11.83,0,0,0,1,12.5a11.82,11.82,0,0,0,22,0A11.83,11.83,0,0,0,12,5Zm0,12.5a5,5,0,1,1,5-5A5,5,0,0,1,12,17.5Zm0-8a3,3,0,0,0-3,3H9a3,3,0,1,0,3-3Z"/><rect id="Box" class="cls-1" width="24" height="24"/></g></g></svg>