<svg id="Layer_1" data-name="Layer 1" xmlns="http://www.w3.org/2000/svg" viewBox="0 0 15.11 16.57"><defs><style>.cls-1{fill:#fff;}</style></defs><title>ammo</title><g id="ammo"><g id="Group_717" data-name="Group 717"><g id="Group_716" data-name="Group 716"><path id="Path_16012" data-name="Path 16012" class="cls-1" d="M4.24,8.43s0,0,0,0h0s0,0,0,0h0L3.65,6.87V4.51A11.71,11.71,0,0,0,2.39.15.32.32,0,0,0,2,0a.57.57,0,0,0-.11.11A12.05,12.05,0,0,0,.63,4.51V6.87L0,8.32H0s0,0,0,0H0a.2.2,0,0,1,0,0H0v6.94a.28.28,0,0,0,.24.3H.33v.6a.29.29,0,0,0,.24.3h3a.34.34,0,0,0,.34-.3v-.6a.32.32,0,0,0,.3-.3V8.43Zm-3-3.92A9.89,9.89,0,0,1,2.14,1,10.11,10.11,0,0,1,3,4.51v.3H1.23Zm0,.9H3.05V6.62H1.24ZM1.1,7.22h2l.37.91H.74ZM3.35,16H.93v-.3H3.35Zm.3-.9h-3V8.73h3Z" transform="translate(-0.01 0)"/></g></g><g id="Group_719" data-name="Group 719"><g id="Group_718" data-name="Group 718"><path id="Path_16013" data-name="Path 16013" class="cls-1" d="M9.67,8.43s0,0,0,0h0s0,0,0,0h0L9.08,6.87V4.51A11.71,11.71,0,0,0,7.82.15.32.32,0,0,0,7.4,0L7.29.15A12.05,12.05,0,0,0,6.06,4.51V6.87l-.6,1.45h0s0,0,0,0h0a.2.2,0,0,1,0,0h0v6.94a.26.26,0,0,0,.23.3h.07v.6a.27.27,0,0,0,.23.3H9.05a.34.34,0,0,0,.34-.3v-.6a.32.32,0,0,0,.3-.3V8.43Zm-3-3.92A9.89,9.89,0,0,1,7.57,1a9.89,9.89,0,0,1,.9,3.5v.3H6.66Zm0,.9H8.48V6.62H6.67ZM6.53,7.22h2l.37.91H6.17ZM8.78,16H6.37v-.3H8.78Zm.3-.9h-3V8.73h3Z" transform="translate(-0.01 0)"/></g></g><g id="Group_721" data-name="Group 721"><g id="Group_720" data-name="Group 720"><path id="Path_16014" data-name="Path 16014" class="cls-1" d="M15.09,8.43s0,0,0,0h0s0,0,0,0h0l-.56-1.45V4.51A11.71,11.71,0,0,0,13.25.15.31.31,0,0,0,12.84,0a.43.43,0,0,0-.12.11,12.05,12.05,0,0,0-1.23,4.36V6.87l-.6,1.45h0s0,0,0,0h0a.2.2,0,0,1,0,0h0v6.94a.26.26,0,0,0,.23.3h.07v.6a.27.27,0,0,0,.23.3h3.05a.34.34,0,0,0,.34-.3v-.6a.32.32,0,0,0,.3-.3V8.43Zm-3-3.92A10.12,10.12,0,0,1,13,1a10.11,10.11,0,0,1,.9,3.5v.3H12.09Zm0,.9H13.9V6.62H12.09ZM12,7.22h2l.36.91H11.6ZM14.21,16H11.79v-.3h2.42Zm.3-.9h-3V8.73h3Z" transform="translate(-0.01 0)"/></g></g></g></svg>