<svg id="_002-bullet" data-name=" 002-bullet" xmlns="http://www.w3.org/2000/svg" viewBox="0 0 15.82 15.82"><defs><style>.cls-1{fill:#fff;}</style></defs><title>asset-1</title><path id="Path_1178" data-name="Path 1178" class="cls-1" d="M15.69.14A.47.47,0,0,0,15.36,0h0a6.56,6.56,0,0,0-4,1.58l-1.7.85a.27.27,0,0,0-.12.09l-8,8a.49.49,0,0,0-.14.18L.84,11.9l0-.05a.47.47,0,0,0-.66,0,.47.47,0,0,0,0,.64l3.18,3.18a.47.47,0,0,0,.66,0A.47.47,0,0,0,4,15l-.05,0,1.22-.53a.45.45,0,0,0,.19-.14l8-8a.36.36,0,0,0,.08-.12l.85-1.7a6.56,6.56,0,0,0,1.58-4,.44.44,0,0,0-.13-.33ZM3.22,14.28,1.54,12.61l.4-.94,2.21,2.21ZM5,13.38,2.44,10.86,9.81,3.5,12.32,6Zm7.89-8.14L10.59,3l.89-.44L13.3,4.35Zm1-1.66L12.24,2a5.61,5.61,0,0,1,2.61-1,5.63,5.63,0,0,1-1,2.6Z" transform="translate(-0.01)"/><path id="Path_1179" data-name="Path 1179" class="cls-1" d="M7.69,7.48l-1,1a.47.47,0,0,0,0,.66.47.47,0,0,0,.64,0l1-1a.45.45,0,0,0,0-.65A.47.47,0,0,0,7.69,7.48Z" transform="translate(-0.01)"/></svg>