<svg xmlns="http://www.w3.org/2000/svg" viewBox="0 0 35.986 35.986">
    <defs>
        <style>
            .cls-1{fill:none}.cls-2{fill:#b9b9b9}
        </style>
    </defs>
    <g id="Connected-icon-2709" transform="translate(-374 -11)">
        <path id="Rectangle_366" d="M0 0h35.986v35.986H0z" class="cls-1" data-name="Rectangle 366" transform="translate(374 11)"/>
        <path id="iconUnion" d="M5.053 24.6a17.269 17.269 0 0 1-3.694-5.479A17.212 17.212 0 0 1 2.944 2.772 17.356 17.356 0 0 1 5.048.221c.07-.07.146-.145.225-.221l2.3 2.506a13.763 13.763 0 0 0 .042 19.582 124 124 0 0 1-2.535 2.538zm24.343.023zM26.9 22.152a13.764 13.764 0 0 0 .2-19.55L29.443.241A17.26 17.26 0 0 1 33.118 5.7a17.216 17.216 0 0 1-1.59 16.345 17.369 17.369 0 0 1-2.1 2.551l-.005.005-.021.021zM9.994 19.485zm-.018-.019a10.124 10.124 0 0 1 0-14.329l.133-.13 1.872 2.038a7.046 7.046 0 0 0-2.132 5.068 7.125 7.125 0 0 0 2.282 5.212 82.473 82.473 0 0 1-2.137 2.161zm14.313.015zm-2.344-2.322a7.092 7.092 0 0 0 .234-9.851l2.138-2.16a10.122 10.122 0 0 1-.017 14.317l-.011.011zm-7.74-4.952a2.841 2.841 0 1 1 2.841 2.841 2.841 2.841 0 0 1-2.841-2.841z" class="cls-2" transform="translate(374.757 16.597)"/>
    </g>
</svg>
