<svg xmlns="http://www.w3.org/2000/svg" id="conv_plan_icon" viewBox="0 0 24.404 20.491">
    <defs>
        <style>
            .cls-1{fill:#e4e4e4}.cls-2{fill:#b9b9b9}.cls-3{fill:#eaeaea}
        </style>
    </defs>
    <path id="Path_1217" d="M20.7 12.067a4.989 4.989 0 0 1 1.359.209V5.849H1.341v13.837h15.047a5.014 5.014 0 0 1 4.312-7.619zm-5.763-5.331h2.59v1.942h-2.59zm-6.474 8.417h-2.59v-1.942h2.59zm0-3.237h-2.59V9.974h2.59zm0-3.238h-2.59V6.736h2.59zM13 15.153h-2.59v-1.942H13zm0-6.475h-2.59V6.736H13zm1.942 1.3h2.59v1.942h-2.59z" class="cls-1" data-name="Path 1217" transform="translate(-1.34 -1.849)"/>
    <path id="Rectangle_396" d="M0 0h2.59v1.942H0z" class="cls-2" data-name="Rectangle 396" transform="translate(4.533 4.887)"/>
    <path id="Rectangle_397" d="M0 0h2.59v1.942H0z" class="cls-2" data-name="Rectangle 397" transform="translate(4.533 8.125)"/>
    <path id="Rectangle_398" d="M0 0h2.59v1.942H0z" class="cls-2" data-name="Rectangle 398" transform="translate(9.065 4.887)"/>
    <path id="Rectangle_399" d="M0 0h2.59v1.942H0z" class="cls-2" data-name="Rectangle 399" transform="translate(13.597 4.887)"/>
    <path id="Rectangle_400" d="M0 0h2.59v1.942H0z" class="cls-2" data-name="Rectangle 400" transform="translate(4.533 11.362)"/>
    <path id="Rectangle_401" d="M0 0h2.59v1.942H0z" class="cls-2" data-name="Rectangle 401" transform="translate(9.065 11.362)"/>
    <path id="Rectangle_402" d="M0 0h2.59v1.942H0z" class="cls-2" data-name="Rectangle 402" transform="translate(13.597 8.125)"/>
    <path id="Path_1218" d="M22.059 12.276a4.989 4.989 0 0 0-1.359-.209 5.137 5.137 0 1 0 1.359.209zm-1.208 5.13v1.976h-.658v-1.976h-1.977v-.659h1.976v-1.975h.658v1.976h1.976v.658z" class="cls-2" data-name="Path 1218" transform="translate(-1.34 -1.849)"/>
    <path id="Path_1219" d="M19.51 14.9v-1.977h-.658V14.9h-1.976v.659h1.977v1.976h.658v-1.978h1.976V14.9z" class="cls-3" data-name="Path 1219"/>
    <path id="Path_1220" d="M20.72 4V0H0v4h20.72z" class="cls-2" data-name="Path 1220"/>
</svg>
