<?xml version="1.0" encoding="utf-8"?>
<!-- Svg Vector Icons : http://www.onlinewebfonts.com/icon -->
<!DOCTYPE svg PUBLIC "-//W3C//DTD SVG 1.1//EN" "http://www.w3.org/Graphics/SVG/1.1/DTD/svg11.dtd">
<svg version="1.1" xmlns="http://www.w3.org/2000/svg" xmlns:xlink="http://www.w3.org/1999/xlink" x="0px" y="0px" viewBox="0 0 1000 1000" enable-background="new 0 0 1000 1000" xml:space="preserve">
<metadata> Svg Vector Icons : http://www.onlinewebfonts.com/icon </metadata>
<g><path style="fill: white" d="M468.7,535.9c-2.6-54.4-18.8-93-33.2-126.9c-17-40.4-31.7-75.3-22.2-132.9c15.4-92.6,183.1-225.2,401.2-214.2l2.6-51.4C628.4,1.3,388.7,111.1,362.8,267.6c-12,72.3,7,117.6,25.5,161.4c13.8,32.9,27,64.1,29.1,109.4c1.9,39.5-106.2,140-352.8,240.2l19.2,47.6C149.3,799.7,474.7,661.1,468.7,535.9z M934.4,651.5c-7.3-97.6-57.8-191.7-128.8-239.8c-127.4-86.3-119.7-125.1-100.9-157.3c56.1-96.3,203.6-97.7,205.1-97.7v-51.4c-7.3,0-178.2,1.4-249.3,123.3c-54.1,92.6,24,163.4,116.4,226c58.5,39.6,100.2,118.5,106.4,200.9c5.4,73.4-13.6,184.5-135.5,296.6l34.6,37.9C919.4,863.8,940.6,736.2,934.4,651.5z M439.1,882.4l11.9,50c0.8-0.2,19.3-4.6,44.7-16.4l-21.4-46.7C454.4,878.4,440.1,882.1,439.1,882.4z M445,907.3l-6-24.9h-0.1L445,907.3z M546.9,434.5c13.6,24.3,27.9,50.2,39.7,78.7l47.3-19.8c-12.9-31.1-28-58.6-42.4-84.1L546.9,434.5z M661,586.7l-50.6,8.3c1.6,10.1,2.8,20.3,3.5,30.4c0.6,7.8,0.8,15.4,0.8,22.8c0,10.5-0.6,21-1.6,31.1l50.9,5.4c1.2-11.8,1.8-24,1.8-36.4c0-8.5-0.3-17.2-0.9-26.2C664.2,610,662.8,598.2,661,586.7z M544.2,293.5c0-10.7,2.3-20.9,6.8-31.2l-46.7-21c-7.5,16.8-11.2,34.4-11.2,52.2c0,17.7,3.6,35.9,11,56l48.1-17.8C546.8,317.4,544.2,304.9,544.2,293.5z M542.9,823.3l34.9,37.6c24.9-23.4,45-50.5,59.5-80.5l-46-22.3C579.5,782.4,563.2,804.4,542.9,823.3z M606.2,135.4c-13.3,9-25.4,18-36.2,26.8l32.3,39.9c9.6-7.8,20.5-16,32.5-24.2L606.2,135.4z"/></g>
</svg>
