<svg id="Layer_1" data-name="Layer 1" xmlns="http://www.w3.org/2000/svg" viewBox="0 0 18 13.71"><defs><style>.cls-1{fill:#fff;}</style></defs><title>gun</title><g id="gun"><path id="Path_1280" data-name="Path 1280" class="cls-1" d="M3.69,11.6a.53.53,0,0,0,.53-.53V5.8a.53.53,0,0,0-1.06,0v5.27a.53.53,0,0,0,.53.53Z" transform="translate(0 0)"/><path id="Path_1281" data-name="Path 1281" class="cls-1" d="M17.47,0A.52.52,0,0,0,17,.53h0v.52H3.69A.73.73,0,0,1,3.4,1,.43.43,0,0,1,3.16.53a.53.53,0,1,0-1.05,0,1.7,1.7,0,0,0,.1.59A1.58,1.58,0,0,0,1.06,2.64v.52H.53A.53.53,0,0,0,0,3.69H0V5.8a.53.53,0,0,0,.53.53h0a.34.34,0,0,1,.28.13.36.36,0,0,1,.08.3L.21,11.88a1.58,1.58,0,0,0,1.31,1.81l.25,0h4a.53.53,0,0,0,.53-.53h0V9.49h.52A2.64,2.64,0,0,0,9.44,7.38h4.87a.52.52,0,0,0,.52-.52h0V6.33h2.64A.53.53,0,0,0,18,5.8h0V.53A.53.53,0,0,0,17.47,0ZM6.86,8.44H6.33V7.38h2A1.59,1.59,0,0,1,6.86,8.44ZM13.78,5.8v.53h-8a.52.52,0,0,0-.53.52h0v5.8H1.77a.49.49,0,0,1-.4-.18A.52.52,0,0,1,1.25,12l.69-5.12a1.46,1.46,0,0,0-.33-1.15,1.45,1.45,0,0,0-.55-.4V4.22H13.78Zm3.16-.53h-2.1v-1h2.1Zm0-2.11H2.11V2.64a.53.53,0,0,1,.53-.53h14.3Z" transform="translate(0 0)"/></g></svg>