<svg id="center-align" xmlns="http://www.w3.org/2000/svg" viewBox="0 0 16.33 16.37"><defs><style>.cls-1{fill:#fff;}</style></defs><title>icon_to_center</title><g id="Group_931" data-name="Group 931"><g id="Group_930" data-name="Group 930"><path id="Path_16906" data-name="Path 16906" class="cls-1" d="M6.86,5.71a1.91,1.91,0,0,0,2.71,0h0l1.95-2a.66.66,0,0,0,.05-.91.64.64,0,0,0-.9,0l-.06.06L8.83,4.65v-4A.65.65,0,0,0,8.16,0a.63.63,0,0,0-.61.62V4.59L5.79,2.84a.64.64,0,0,0-.9.91Z" transform="translate(-0.03 -0.03)"/><path id="Path_16907" data-name="Path 16907" class="cls-1" d="M9.57,10.67a1.91,1.91,0,0,0-2.71,0l-2,2a.64.64,0,0,0-.07.9.65.65,0,0,0,.91.07l.06-.07,1.75-1.75v4a.64.64,0,0,0,.62.66.64.64,0,0,0,.66-.61v-4l1.79,1.79a.63.63,0,0,0,.9.06.64.64,0,0,0,.06-.9l-.05-.06Z" transform="translate(-0.03 -0.03)"/><path id="Path_16908" data-name="Path 16908" class="cls-1" d="M15.73,7.58H.64a.64.64,0,0,0,0,1.28h15.1a.64.64,0,0,0,0-1.28Z" transform="translate(-0.03 -0.03)"/></g></g></svg>