<svg id="Layer_1" data-name="Layer 1" xmlns="http://www.w3.org/2000/svg" viewBox="0 0 38.82 42.48"><title>Layer 1</title><g id="Layer_1-2" data-name="Layer 1"><path id="Path_1246" data-name="Path 1246" d="M40.58,2.23l-1.28.08c.08,1,.13,1.95.17,2.92l1.28-.05C40.72,4.21,40.66,3.23,40.58,2.23Zm.25,5.94H39.54c0,1,0,1.95-.07,2.92l1.31.06C40.81,10.16,40.84,9.17,40.83,8.17Zm-.28,5.94L39.23,14c-.09,1-.22,1.95-.36,2.87l1.27.22A27.36,27.36,0,0,0,40.55,14.11Zm-1,5.91-1.24-.29c-.21.86-.43,1.71-.67,2.53l-.08.27,1.22.37.09-.28a15.29,15.29,0,0,0,.68-2.6ZM37.8,25.74l-1.18-.47c-.36.89-.77,1.78-1.2,2.62l1.15.59a23.64,23.64,0,0,0,1.28-2.75Zm-2.74,5.35L34,30.42c-.51.82-1.07,1.62-1.64,2.37l1,.78a28,28,0,0,0,1.82-2.5Zm-3.67,4.77L30.46,35a23.05,23.05,0,0,1-2.09,2l.83,1a23.74,23.74,0,0,0,2.29-2.08Zm-4.48,3.83-.7-1.07-.68.42a17.54,17.54,0,0,1-1.81,1l.55,1.18c.66-.31,1.31-.67,1.93-1C26.41,40.05,26.64,39.85,26.91,39.69Zm-5.47,2.59-.39-1.21a20.08,20.08,0,0,1-2,.55l-.78.16L18.51,43l.83-.17a14.57,14.57,0,0,0,2.06-.56Zm-6-.25a19.41,19.41,0,0,1-2.85-.11l-.13,1.33a19.2,19.2,0,0,0,3,.12Zm-5.63-.64a16.07,16.07,0,0,1-2.66-1l-.54,1.17a16.82,16.82,0,0,0,2.82,1.06Z" transform="translate(-6.57 -0.91)"/><path id="Path_1247" data-name="Path 1247" d="M45.39,6.2l-.87.94L40,2.78l-4,4.87-1-.8L39.83.91Z" transform="translate(-6.57 -0.91)"/></g></svg>