<svg id="Layer_1" data-name="Layer 1" xmlns="http://www.w3.org/2000/svg" viewBox="0 0 12.8 8"><defs><style>.cls-1{fill:none;}.cls-2{fill:#ce564b;}</style></defs><title>low-battery</title><g id="low-battery"><path id="Path_1171" data-name="Path 1171" class="cls-1" d="M11.05,5.81v.48a1,1,0,0,1-1,1H1.75a1,1,0,0,1-1-1V1.71a1,1,0,0,1,1-1h8.3a1,1,0,0,1,1,1v.48h.5a.5.5,0,0,1,.5.48V5.32a.51.51,0,0,1-.5.49Z"/><path id="Path_1172" data-name="Path 1172" d="M10.27,8H1.47A1.47,1.47,0,0,1,0,6.53V1.47A1.47,1.47,0,0,1,1.47,0h8.8a1.46,1.46,0,0,1,1.46,1.47V1.6h.13a.94.94,0,0,1,.94.93V5.47a.94.94,0,0,1-.94.93h-.13v.13A1.46,1.46,0,0,1,10.27,8ZM1.47.8a.67.67,0,0,0-.67.67V6.53a.67.67,0,0,0,.67.67h8.8a.66.66,0,0,0,.66-.67V6a.4.4,0,0,1,.4-.4h.53A.13.13,0,0,0,12,5.47h0V2.53a.13.13,0,0,0-.13-.13h-.53a.4.4,0,0,1-.4-.4V1.47A.67.67,0,0,0,10.27.8Z"/><path id="Path_1173" data-name="Path 1173" class="cls-2" d="M2.66,6c-.41,0-.75-.15-.75-.33V2.33c0-.18.34-.33.75-.33s.75.15.75.33V5.67C3.41,5.85,3.08,6,2.66,6Z"/></g></svg>