<svg id="right" xmlns="http://www.w3.org/2000/svg" viewBox="0 0 85.98 85.98"><defs><style>.cls-1{fill:#ce564b;}</style></defs><title>right (1)</title><g id="Group_730" data-name="Group 730"><g id="Group_729" data-name="Group 729"><path id="Path_16023" data-name="Path 16023" class="cls-1" d="M73.39,12.59a43,43,0,1,0,0,60.8A43,43,0,0,0,73.39,12.59ZM43,80.94A37.95,37.95,0,1,1,80.94,43,37.95,37.95,0,0,1,43,80.94Z" transform="translate(0.01 0)"/></g></g><g id="Group_732" data-name="Group 732"><g id="Group_731" data-name="Group 731"><path id="Path_16024" data-name="Path 16024" class="cls-1" d="M63.53,29.19a2.54,2.54,0,0,0-3.57,0L37.72,51.43,26,39.73a2.52,2.52,0,0,0-3.56,3.56L35.94,56.78a2.5,2.5,0,0,0,3.56,0l24-24a2.54,2.54,0,0,0,0-3.57Z" transform="translate(0.01 0)"/></g></g></svg>