<?xml version="1.0" encoding="UTF-8" standalone="no"?>
<!DOCTYPE svg PUBLIC "-//W3C//DTD SVG 1.1//EN"
 "http://www.w3.org/Graphics/SVG/1.1/DTD/svg11.dtd">
<!-- Generated by graphviz version 2.47.3 (20210619.1520)
 -->
<!-- Title: dependencies Pages: 1 -->
<svg width="188pt" height="174pt"
 viewBox="0.00 0.00 188.00 173.80" xmlns="http://www.w3.org/2000/svg" xmlns:xlink="http://www.w3.org/1999/xlink">
<g id="graph0" class="graph" transform="scale(1 1) rotate(0) translate(4 169.8)">
<title>dependencies</title>
<polygon fill="white" stroke="transparent" points="-4,4 -4,-169.8 184,-169.8 184,4 -4,4"/>
<text text-anchor="middle" x="90" y="-8.2" font-family="sans-serif" font-size="14.00">dependencies</text>
<g id="clust1" class="cluster">
<title>cluster_ActivityHistoryModule</title>
<polygon fill="none" stroke="black" stroke-dasharray="1,5" points="8,-32.8 8,-157.8 172,-157.8 172,-32.8 8,-32.8"/>
</g>
<g id="clust3" class="cluster">
<title>cluster_ActivityHistoryModule_imports</title>
<polygon fill="none" stroke="black" points="33,-40.8 33,-92.8 147,-92.8 147,-40.8 33,-40.8"/>
</g>
<!-- SharedModule -->
<g id="node1" class="node">
<title>SharedModule</title>
<polygon fill="#8dd3c7" stroke="black" points="139.42,-84.8 136.42,-88.8 115.42,-88.8 112.42,-84.8 40.58,-84.8 40.58,-48.8 139.42,-48.8 139.42,-84.8"/>
<text text-anchor="middle" x="90" y="-62.6" font-family="Times,serif" font-size="14.00">SharedModule</text>
</g>
<!-- ActivityHistoryModule -->
<g id="node2" class="node">
<title>ActivityHistoryModule</title>
<polygon fill="#8dd3c7" stroke="black" points="163.93,-149.8 160.93,-153.8 139.93,-153.8 136.93,-149.8 16.07,-149.8 16.07,-113.8 163.93,-113.8 163.93,-149.8"/>
<text text-anchor="middle" x="90" y="-127.6" font-family="Times,serif" font-size="14.00">ActivityHistoryModule</text>
</g>
<!-- SharedModule&#45;&gt;ActivityHistoryModule -->
<g id="edge1" class="edge">
<title>SharedModule&#45;&gt;ActivityHistoryModule</title>
<path fill="none" stroke="black" d="M90,-84.91C90,-84.91 90,-103.79 90,-103.79"/>
<polygon fill="black" stroke="black" points="86.5,-103.79 90,-113.79 93.5,-103.79 86.5,-103.79"/>
</g>
</g>
</svg>
