<?xml version="1.0" encoding="UTF-8" standalone="no"?>
<!DOCTYPE svg PUBLIC "-//W3C//DTD SVG 1.1//EN"
 "http://www.w3.org/Graphics/SVG/1.1/DTD/svg11.dtd">
<!-- Generated by graphviz version 2.47.3 (20210619.1520)
 -->
<!-- Title: dependencies Pages: 1 -->
<svg width="969pt" height="174pt"
 viewBox="0.00 0.00 969.00 173.80" xmlns="http://www.w3.org/2000/svg" xmlns:xlink="http://www.w3.org/1999/xlink">
<g id="graph0" class="graph" transform="scale(1 1) rotate(0) translate(4 169.8)">
<title>dependencies</title>
<polygon fill="white" stroke="transparent" points="-4,4 -4,-169.8 965,-169.8 965,4 -4,4"/>
<text text-anchor="middle" x="480.5" y="-8.2" font-family="sans-serif" font-size="14.00">dependencies</text>
<g id="clust1" class="cluster">
<title>cluster_TabsPageModule</title>
<polygon fill="none" stroke="black" stroke-dasharray="1,5" points="8,-32.8 8,-157.8 953,-157.8 953,-32.8 8,-32.8"/>
</g>
<g id="clust4" class="cluster">
<title>cluster_TabsPageModule_imports</title>
<polygon fill="none" stroke="black" points="252,-40.8 252,-92.8 945,-92.8 945,-40.8 252,-40.8"/>
</g>
<g id="clust7" class="cluster">
<title>cluster_TabsPageModule_providers</title>
<polygon fill="none" stroke="black" points="110,-40.8 110,-92.8 244,-92.8 244,-40.8 110,-40.8"/>
</g>
<g id="clust2" class="cluster">
<title>cluster_TabsPageModule_declarations</title>
<polygon fill="none" stroke="black" points="16,-40.8 16,-92.8 102,-92.8 102,-40.8 16,-40.8"/>
</g>
<!-- TabsPage -->
<g id="node1" class="node">
<title>TabsPage</title>
<polygon fill="#ffffb3" stroke="black" points="94.42,-84.8 23.58,-84.8 23.58,-48.8 94.42,-48.8 94.42,-84.8"/>
<text text-anchor="middle" x="59" y="-62.6" font-family="Times,serif" font-size="14.00">TabsPage</text>
</g>
<!-- TabsPageModule -->
<g id="node2" class="node">
<title>TabsPageModule</title>
<polygon fill="#8dd3c7" stroke="black" points="551.97,-149.8 548.97,-153.8 527.97,-153.8 524.97,-149.8 438.03,-149.8 438.03,-113.8 551.97,-113.8 551.97,-149.8"/>
<text text-anchor="middle" x="495" y="-127.6" font-family="Times,serif" font-size="14.00">TabsPageModule</text>
</g>
<!-- TabsPage&#45;&gt;TabsPageModule -->
<g id="edge1" class="edge">
<title>TabsPage&#45;&gt;TabsPageModule</title>
<path fill="none" stroke="black" d="M59,-85.09C59,-107.01 59,-140.8 59,-140.8 59,-140.8 428,-140.8 428,-140.8"/>
<polygon fill="black" stroke="black" points="428,-144.3 438,-140.8 428,-137.3 428,-144.3"/>
</g>
<!-- SharedModule -->
<g id="node3" class="node">
<title>SharedModule</title>
<polygon fill="#8dd3c7" stroke="black" points="937.42,-84.8 934.42,-88.8 913.42,-88.8 910.42,-84.8 838.58,-84.8 838.58,-48.8 937.42,-48.8 937.42,-84.8"/>
<text text-anchor="middle" x="888" y="-62.6" font-family="Times,serif" font-size="14.00">SharedModule</text>
</g>
<!-- SharedModule&#45;&gt;TabsPageModule -->
<g id="edge2" class="edge">
<title>SharedModule&#45;&gt;TabsPageModule</title>
<path fill="none" stroke="black" d="M888,-85.09C888,-107.01 888,-140.8 888,-140.8 888,-140.8 562.15,-140.8 562.15,-140.8"/>
<polygon fill="black" stroke="black" points="562.15,-137.3 552.15,-140.8 562.15,-144.3 562.15,-137.3"/>
</g>
<!-- Tab1PageModule -->
<g id="node4" class="node">
<title>Tab1PageModule</title>
<polygon fill="#8dd3c7" stroke="black" points="820.53,-84.8 817.53,-88.8 796.53,-88.8 793.53,-84.8 705.47,-84.8 705.47,-48.8 820.53,-48.8 820.53,-84.8"/>
<text text-anchor="middle" x="763" y="-62.6" font-family="Times,serif" font-size="14.00">Tab1PageModule</text>
</g>
<!-- Tab1PageModule&#45;&gt;TabsPageModule -->
<g id="edge3" class="edge">
<title>Tab1PageModule&#45;&gt;TabsPageModule</title>
<path fill="none" stroke="black" d="M763,-84.91C763,-104.14 763,-131.8 763,-131.8 763,-131.8 562.16,-131.8 562.16,-131.8"/>
<polygon fill="black" stroke="black" points="562.16,-128.3 552.16,-131.8 562.16,-135.3 562.16,-128.3"/>
</g>
<!-- Tab2PageModule -->
<g id="node5" class="node">
<title>Tab2PageModule</title>
<polygon fill="#8dd3c7" stroke="black" points="686.53,-84.8 683.53,-88.8 662.53,-88.8 659.53,-84.8 571.47,-84.8 571.47,-48.8 686.53,-48.8 686.53,-84.8"/>
<text text-anchor="middle" x="629" y="-62.6" font-family="Times,serif" font-size="14.00">Tab2PageModule</text>
</g>
<!-- Tab2PageModule&#45;&gt;TabsPageModule -->
<g id="edge4" class="edge">
<title>Tab2PageModule&#45;&gt;TabsPageModule</title>
<path fill="none" stroke="black" d="M629,-84.83C629,-101.2 629,-122.8 629,-122.8 629,-122.8 562.22,-122.8 562.22,-122.8"/>
<polygon fill="black" stroke="black" points="562.22,-119.3 552.22,-122.8 562.22,-126.3 562.22,-119.3"/>
</g>
<!-- Tab3PageModule -->
<g id="node6" class="node">
<title>Tab3PageModule</title>
<polygon fill="#8dd3c7" stroke="black" points="552.53,-84.8 549.53,-88.8 528.53,-88.8 525.53,-84.8 437.47,-84.8 437.47,-48.8 552.53,-48.8 552.53,-84.8"/>
<text text-anchor="middle" x="495" y="-62.6" font-family="Times,serif" font-size="14.00">Tab3PageModule</text>
</g>
<!-- Tab3PageModule&#45;&gt;TabsPageModule -->
<g id="edge5" class="edge">
<title>Tab3PageModule&#45;&gt;TabsPageModule</title>
<path fill="none" stroke="black" d="M495,-84.91C495,-84.91 495,-103.79 495,-103.79"/>
<polygon fill="black" stroke="black" points="491.5,-103.79 495,-113.79 498.5,-103.79 491.5,-103.79"/>
</g>
<!-- TabsPageRoutingModule -->
<g id="node7" class="node">
<title>TabsPageRoutingModule</title>
<polygon fill="#8dd3c7" stroke="black" points="419.59,-84.8 416.59,-88.8 395.59,-88.8 392.59,-84.8 260.41,-84.8 260.41,-48.8 419.59,-48.8 419.59,-84.8"/>
<text text-anchor="middle" x="340" y="-62.6" font-family="Times,serif" font-size="14.00">TabsPageRoutingModule</text>
</g>
<!-- TabsPageRoutingModule&#45;&gt;TabsPageModule -->
<g id="edge6" class="edge">
<title>TabsPageRoutingModule&#45;&gt;TabsPageModule</title>
<path fill="none" stroke="black" d="M340,-84.83C340,-101.2 340,-122.8 340,-122.8 340,-122.8 427.72,-122.8 427.72,-122.8"/>
<polygon fill="black" stroke="black" points="427.72,-126.3 437.72,-122.8 427.72,-119.3 427.72,-126.3"/>
</g>
<!-- TabsService -->
<g id="node8" class="node">
<title>TabsService</title>
<ellipse fill="#fdb462" stroke="black" cx="177" cy="-66.8" rx="58.53" ry="18"/>
<text text-anchor="middle" x="177" y="-62.6" font-family="Times,serif" font-size="14.00">TabsService</text>
</g>
<!-- TabsService&#45;&gt;TabsPageModule -->
<g id="edge7" class="edge">
<title>TabsService&#45;&gt;TabsPageModule</title>
<path fill="none" stroke="black" d="M177,-84.91C177,-104.14 177,-131.8 177,-131.8 177,-131.8 427.78,-131.8 427.78,-131.8"/>
<polygon fill="black" stroke="black" points="427.78,-135.3 437.78,-131.8 427.78,-128.3 427.78,-135.3"/>
</g>
</g>
</svg>
