<?xml version="1.0" encoding="UTF-8" standalone="no"?>
<!DOCTYPE svg PUBLIC "-//W3C//DTD SVG 1.1//EN"
 "http://www.w3.org/Graphics/SVG/1.1/DTD/svg11.dtd">
<!-- Generated by graphviz version 2.47.3 (20210619.1520)
 -->
<!-- Title: dependencies Pages: 1 -->
<svg width="847pt" height="247pt"
 viewBox="0.00 0.00 847.00 246.80" xmlns="http://www.w3.org/2000/svg" xmlns:xlink="http://www.w3.org/1999/xlink">
<g id="graph0" class="graph" transform="scale(1 1) rotate(0) translate(4 242.8)">
<title>dependencies</title>
<polygon fill="white" stroke="transparent" points="-4,4 -4,-242.8 843,-242.8 843,4 -4,4"/>
<text text-anchor="middle" x="419.5" y="-8.2" font-family="sans-serif" font-size="14.00">dependencies</text>
<g id="clust1" class="cluster">
<title>cluster_Tab2PageModule</title>
<polygon fill="none" stroke="black" stroke-dasharray="1,5" points="8,-32.8 8,-230.8 831,-230.8 831,-32.8 8,-32.8"/>
</g>
<g id="clust7" class="cluster">
<title>cluster_Tab2PageModule_exports</title>
<polygon fill="none" stroke="black" points="313,-170.8 313,-222.8 405,-222.8 405,-170.8 313,-170.8"/>
</g>
<g id="clust2" class="cluster">
<title>cluster_Tab2PageModule_declarations</title>
<polygon fill="none" stroke="black" points="367,-40.8 367,-92.8 823,-92.8 823,-40.8 367,-40.8"/>
</g>
<g id="clust6" class="cluster">
<title>cluster_Tab2PageModule_imports</title>
<polygon fill="none" stroke="black" points="16,-40.8 16,-92.8 359,-92.8 359,-40.8 16,-40.8"/>
</g>
<!-- BalisticCalculatorComponent -->
<g id="node1" class="node">
<title>BalisticCalculatorComponent</title>
<polygon fill="#ffffb3" stroke="black" points="815.42,-84.8 632.58,-84.8 632.58,-48.8 815.42,-48.8 815.42,-84.8"/>
<text text-anchor="middle" x="724" y="-62.6" font-family="Times,serif" font-size="14.00">BalisticCalculatorComponent</text>
</g>
<!-- Tab2PageModule -->
<g id="node4" class="node">
<title>Tab2PageModule</title>
<polygon fill="#8dd3c7" stroke="black" points="416.53,-149.8 413.53,-153.8 392.53,-153.8 389.53,-149.8 301.47,-149.8 301.47,-113.8 416.53,-113.8 416.53,-149.8"/>
<text text-anchor="middle" x="359" y="-127.6" font-family="Times,serif" font-size="14.00">Tab2PageModule</text>
</g>
<!-- BalisticCalculatorComponent&#45;&gt;Tab2PageModule -->
<g id="edge1" class="edge">
<title>BalisticCalculatorComponent&#45;&gt;Tab2PageModule</title>
<path fill="none" stroke="black" d="M724,-85.08C724,-106.12 724,-137.8 724,-137.8 724,-137.8 426.84,-137.8 426.84,-137.8"/>
<polygon fill="black" stroke="black" points="426.84,-134.3 416.84,-137.8 426.84,-141.3 426.84,-134.3"/>
</g>
<!-- ChooseDrillComponent -->
<g id="node2" class="node">
<title>ChooseDrillComponent</title>
<polygon fill="#ffffb3" stroke="black" points="614.77,-84.8 465.23,-84.8 465.23,-48.8 614.77,-48.8 614.77,-84.8"/>
<text text-anchor="middle" x="540" y="-62.6" font-family="Times,serif" font-size="14.00">ChooseDrillComponent</text>
</g>
<!-- ChooseDrillComponent&#45;&gt;Tab2PageModule -->
<g id="edge2" class="edge">
<title>ChooseDrillComponent&#45;&gt;Tab2PageModule</title>
<path fill="none" stroke="black" d="M540,-84.82C540,-102.17 540,-125.8 540,-125.8 540,-125.8 426.77,-125.8 426.77,-125.8"/>
<polygon fill="black" stroke="black" points="426.77,-122.3 416.77,-125.8 426.77,-129.3 426.77,-122.3"/>
</g>
<!-- Tab2Page -->
<g id="node3" class="node">
<title>Tab2Page</title>
<polygon fill="#ffffb3" stroke="black" points="446.98,-84.8 375.02,-84.8 375.02,-48.8 446.98,-48.8 446.98,-84.8"/>
<text text-anchor="middle" x="411" y="-62.6" font-family="Times,serif" font-size="14.00">Tab2Page</text>
</g>
<!-- Tab2Page&#45;&gt;Tab2PageModule -->
<g id="edge3" class="edge">
<title>Tab2Page&#45;&gt;Tab2PageModule</title>
<path fill="none" stroke="black" d="M395.89,-84.91C395.89,-84.91 395.89,-103.79 395.89,-103.79"/>
<polygon fill="black" stroke="black" points="392.39,-103.79 395.89,-113.79 399.39,-103.79 392.39,-103.79"/>
</g>
<!-- Tab2Page  -->
<g id="node8" class="node">
<title>Tab2Page </title>
<polygon fill="#fb8072" stroke="black" points="396.98,-214.8 321.02,-214.8 321.02,-178.8 396.98,-178.8 396.98,-214.8"/>
<text text-anchor="middle" x="359" y="-192.6" font-family="Times,serif" font-size="14.00">Tab2Page </text>
</g>
<!-- Tab2PageModule&#45;&gt;Tab2Page  -->
<g id="edge7" class="edge">
<title>Tab2PageModule&#45;&gt;Tab2Page </title>
<path fill="none" stroke="black" stroke-dasharray="5,2" d="M359,-149.91C359,-149.91 359,-168.79 359,-168.79"/>
<polygon fill="black" stroke="black" points="355.5,-168.79 359,-178.79 362.5,-168.79 355.5,-168.79"/>
</g>
<!-- DrillModule -->
<g id="node5" class="node">
<title>DrillModule</title>
<polygon fill="#8dd3c7" stroke="black" points="350.99,-84.8 347.99,-88.8 326.99,-88.8 323.99,-84.8 265.01,-84.8 265.01,-48.8 350.99,-48.8 350.99,-84.8"/>
<text text-anchor="middle" x="308" y="-62.6" font-family="Times,serif" font-size="14.00">DrillModule</text>
</g>
<!-- DrillModule&#45;&gt;Tab2PageModule -->
<g id="edge4" class="edge">
<title>DrillModule&#45;&gt;Tab2PageModule</title>
<path fill="none" stroke="black" d="M326.12,-84.91C326.12,-84.91 326.12,-103.79 326.12,-103.79"/>
<polygon fill="black" stroke="black" points="322.62,-103.79 326.12,-113.79 329.62,-103.79 322.62,-103.79"/>
</g>
<!-- MaterialModule -->
<g id="node6" class="node">
<title>MaterialModule</title>
<polygon fill="#8dd3c7" stroke="black" points="247.47,-84.8 244.47,-88.8 223.47,-88.8 220.47,-84.8 140.53,-84.8 140.53,-48.8 247.47,-48.8 247.47,-84.8"/>
<text text-anchor="middle" x="194" y="-62.6" font-family="Times,serif" font-size="14.00">MaterialModule</text>
</g>
<!-- MaterialModule&#45;&gt;Tab2PageModule -->
<g id="edge5" class="edge">
<title>MaterialModule&#45;&gt;Tab2PageModule</title>
<path fill="none" stroke="black" d="M194,-84.82C194,-102.17 194,-125.8 194,-125.8 194,-125.8 291.29,-125.8 291.29,-125.8"/>
<polygon fill="black" stroke="black" points="291.29,-129.3 301.29,-125.8 291.29,-122.3 291.29,-129.3"/>
</g>
<!-- SharedModule -->
<g id="node7" class="node">
<title>SharedModule</title>
<polygon fill="#8dd3c7" stroke="black" points="122.42,-84.8 119.42,-88.8 98.42,-88.8 95.42,-84.8 23.58,-84.8 23.58,-48.8 122.42,-48.8 122.42,-84.8"/>
<text text-anchor="middle" x="73" y="-62.6" font-family="Times,serif" font-size="14.00">SharedModule</text>
</g>
<!-- SharedModule&#45;&gt;Tab2PageModule -->
<g id="edge6" class="edge">
<title>SharedModule&#45;&gt;Tab2PageModule</title>
<path fill="none" stroke="black" d="M73,-85.08C73,-106.12 73,-137.8 73,-137.8 73,-137.8 291.47,-137.8 291.47,-137.8"/>
<polygon fill="black" stroke="black" points="291.47,-141.3 301.47,-137.8 291.47,-134.3 291.47,-141.3"/>
</g>
</g>
</svg>
