<?xml version="1.0" encoding="UTF-8" standalone="no"?>
<!DOCTYPE svg PUBLIC "-//W3C//DTD SVG 1.1//EN"
 "http://www.w3.org/Graphics/SVG/1.1/DTD/svg11.dtd">
<!-- Generated by graphviz version 2.47.3 (20210619.1520)
 -->
<!-- Title: dependencies Pages: 1 -->
<svg width="675pt" height="247pt"
 viewBox="0.00 0.00 675.00 246.80" xmlns="http://www.w3.org/2000/svg" xmlns:xlink="http://www.w3.org/1999/xlink">
<g id="graph0" class="graph" transform="scale(1 1) rotate(0) translate(4 242.8)">
<title>dependencies</title>
<polygon fill="white" stroke="transparent" points="-4,4 -4,-242.8 671,-242.8 671,4 -4,4"/>
<text text-anchor="middle" x="333.5" y="-8.2" font-family="sans-serif" font-size="14.00">dependencies</text>
<g id="clust1" class="cluster">
<title>cluster_WizardModule</title>
<polygon fill="none" stroke="black" stroke-dasharray="1,5" points="8,-32.8 8,-230.8 659,-230.8 659,-32.8 8,-32.8"/>
</g>
<g id="clust6" class="cluster">
<title>cluster_WizardModule_imports</title>
<polygon fill="none" stroke="black" points="537,-40.8 537,-92.8 651,-92.8 651,-40.8 537,-40.8"/>
</g>
<g id="clust2" class="cluster">
<title>cluster_WizardModule_declarations</title>
<polygon fill="none" stroke="black" points="16,-40.8 16,-92.8 529,-92.8 529,-40.8 16,-40.8"/>
</g>
<g id="clust7" class="cluster">
<title>cluster_WizardModule_exports</title>
<polygon fill="none" stroke="black" points="289,-170.8 289,-222.8 471,-222.8 471,-170.8 289,-170.8"/>
</g>
<!-- SignupComponent -->
<g id="node1" class="node">
<title>SignupComponent</title>
<polygon fill="#ffffb3" stroke="black" points="520.51,-84.8 399.49,-84.8 399.49,-48.8 520.51,-48.8 520.51,-84.8"/>
<text text-anchor="middle" x="460" y="-62.6" font-family="Times,serif" font-size="14.00">SignupComponent</text>
</g>
<!-- WizardModule -->
<g id="node4" class="node">
<title>WizardModule</title>
<polygon fill="#8dd3c7" stroke="black" points="430.25,-149.8 427.25,-153.8 406.25,-153.8 403.25,-149.8 329.75,-149.8 329.75,-113.8 430.25,-113.8 430.25,-149.8"/>
<text text-anchor="middle" x="380" y="-127.6" font-family="Times,serif" font-size="14.00">WizardModule</text>
</g>
<!-- SignupComponent&#45;&gt;WizardModule -->
<g id="edge1" class="edge">
<title>SignupComponent&#45;&gt;WizardModule</title>
<path fill="none" stroke="black" d="M414.93,-84.91C414.93,-84.91 414.93,-103.79 414.93,-103.79"/>
<polygon fill="black" stroke="black" points="411.43,-103.79 414.93,-113.79 418.43,-103.79 411.43,-103.79"/>
</g>
<!-- SignupWizardComponent -->
<g id="node2" class="node">
<title>SignupWizardComponent</title>
<polygon fill="#ffffb3" stroke="black" points="381.2,-84.8 218.8,-84.8 218.8,-48.8 381.2,-48.8 381.2,-84.8"/>
<text text-anchor="middle" x="300" y="-62.6" font-family="Times,serif" font-size="14.00">SignupWizardComponent</text>
</g>
<!-- SignupWizardComponent&#45;&gt;WizardModule -->
<g id="edge2" class="edge">
<title>SignupWizardComponent&#45;&gt;WizardModule</title>
<path fill="none" stroke="black" d="M355.36,-84.91C355.36,-84.91 355.36,-103.79 355.36,-103.79"/>
<polygon fill="black" stroke="black" points="351.86,-103.79 355.36,-113.79 358.86,-103.79 351.86,-103.79"/>
</g>
<!-- WizardSummaryComponent -->
<g id="node3" class="node">
<title>WizardSummaryComponent</title>
<polygon fill="#ffffb3" stroke="black" points="200.47,-84.8 23.53,-84.8 23.53,-48.8 200.47,-48.8 200.47,-84.8"/>
<text text-anchor="middle" x="112" y="-62.6" font-family="Times,serif" font-size="14.00">WizardSummaryComponent</text>
</g>
<!-- WizardSummaryComponent&#45;&gt;WizardModule -->
<g id="edge3" class="edge">
<title>WizardSummaryComponent&#45;&gt;WizardModule</title>
<path fill="none" stroke="black" d="M112,-84.91C112,-104.14 112,-131.8 112,-131.8 112,-131.8 319.59,-131.8 319.59,-131.8"/>
<polygon fill="black" stroke="black" points="319.59,-135.3 329.59,-131.8 319.59,-128.3 319.59,-135.3"/>
</g>
<!-- SignupWizardComponent  -->
<g id="node6" class="node">
<title>SignupWizardComponent </title>
<polygon fill="#fb8072" stroke="black" points="462.7,-214.8 297.3,-214.8 297.3,-178.8 462.7,-178.8 462.7,-214.8"/>
<text text-anchor="middle" x="380" y="-192.6" font-family="Times,serif" font-size="14.00">SignupWizardComponent </text>
</g>
<!-- WizardModule&#45;&gt;SignupWizardComponent  -->
<g id="edge5" class="edge">
<title>WizardModule&#45;&gt;SignupWizardComponent </title>
<path fill="none" stroke="black" stroke-dasharray="5,2" d="M380,-149.91C380,-149.91 380,-168.79 380,-168.79"/>
<polygon fill="black" stroke="black" points="376.5,-168.79 380,-178.79 383.5,-168.79 376.5,-168.79"/>
</g>
<!-- SharedModule -->
<g id="node5" class="node">
<title>SharedModule</title>
<polygon fill="#8dd3c7" stroke="black" points="643.42,-84.8 640.42,-88.8 619.42,-88.8 616.42,-84.8 544.58,-84.8 544.58,-48.8 643.42,-48.8 643.42,-84.8"/>
<text text-anchor="middle" x="594" y="-62.6" font-family="Times,serif" font-size="14.00">SharedModule</text>
</g>
<!-- SharedModule&#45;&gt;WizardModule -->
<g id="edge4" class="edge">
<title>SharedModule&#45;&gt;WizardModule</title>
<path fill="none" stroke="black" d="M594,-84.91C594,-104.14 594,-131.8 594,-131.8 594,-131.8 440.44,-131.8 440.44,-131.8"/>
<polygon fill="black" stroke="black" points="440.44,-128.3 430.44,-131.8 440.44,-135.3 440.44,-128.3"/>
</g>
</g>
</svg>
