<?xml version="1.0" encoding="UTF-8" standalone="no"?>
<!DOCTYPE svg PUBLIC "-//W3C//DTD SVG 1.1//EN"
 "http://www.w3.org/Graphics/SVG/1.1/DTD/svg11.dtd">
<!-- Generated by graphviz version 2.47.3 (20210619.1520)
 -->
<!-- Title: dependencies Pages: 1 -->
<svg width="2042pt" height="247pt"
 viewBox="0.00 0.00 2042.00 246.80" xmlns="http://www.w3.org/2000/svg" xmlns:xlink="http://www.w3.org/1999/xlink">
<g id="graph0" class="graph" transform="scale(1 1) rotate(0) translate(4 242.8)">
<title>dependencies</title>
<polygon fill="white" stroke="transparent" points="-4,4 -4,-242.8 2038,-242.8 2038,4 -4,4"/>
<text text-anchor="middle" x="1017" y="-8.2" font-family="sans-serif" font-size="14.00">dependencies</text>
<g id="clust1" class="cluster">
<title>cluster_AppModule</title>
<polygon fill="none" stroke="black" stroke-dasharray="1,5" points="8,-32.8 8,-230.8 2026,-230.8 2026,-32.8 8,-32.8"/>
</g>
<g id="clust7" class="cluster">
<title>cluster_AppModule_bootstrap</title>
<polygon fill="none" stroke="black" points="1069,-170.8 1069,-222.8 1193,-222.8 1193,-170.8 1069,-170.8"/>
</g>
<g id="clust2" class="cluster">
<title>cluster_AppModule_declarations</title>
<polygon fill="none" stroke="black" points="1728,-40.8 1728,-92.8 2018,-92.8 2018,-40.8 1728,-40.8"/>
</g>
<g id="clust6" class="cluster">
<title>cluster_AppModule_exports</title>
<polygon fill="none" stroke="black" points="935,-170.8 935,-222.8 1061,-222.8 1061,-170.8 935,-170.8"/>
</g>
<g id="clust5" class="cluster">
<title>cluster_AppModule_imports</title>
<polygon fill="none" stroke="black" points="1066,-40.8 1066,-92.8 1720,-92.8 1720,-40.8 1066,-40.8"/>
</g>
<g id="clust8" class="cluster">
<title>cluster_AppModule_providers</title>
<polygon fill="none" stroke="black" points="16,-40.8 16,-92.8 1058,-92.8 1058,-40.8 16,-40.8"/>
</g>
<!-- ActivityLogComponent -->
<g id="node1" class="node">
<title>ActivityLogComponent</title>
<polygon fill="#ffffb3" stroke="black" points="2009.77,-84.8 1860.23,-84.8 1860.23,-48.8 2009.77,-48.8 2009.77,-84.8"/>
<text text-anchor="middle" x="1935" y="-62.6" font-family="Times,serif" font-size="14.00">ActivityLogComponent</text>
</g>
<!-- AppModule -->
<g id="node3" class="node">
<title>AppModule</title>
<polygon fill="#8dd3c7" stroke="black" points="1105.66,-149.8 1102.66,-153.8 1081.66,-153.8 1078.66,-149.8 1022.34,-149.8 1022.34,-113.8 1105.66,-113.8 1105.66,-149.8"/>
<text text-anchor="middle" x="1064" y="-127.6" font-family="Times,serif" font-size="14.00">AppModule</text>
</g>
<!-- ActivityLogComponent&#45;&gt;AppModule -->
<g id="edge1" class="edge">
<title>ActivityLogComponent&#45;&gt;AppModule</title>
<path fill="none" stroke="black" d="M1935,-84.89C1935,-107.93 1935,-144.8 1935,-144.8 1935,-144.8 1115.72,-144.8 1115.72,-144.8"/>
<polygon fill="black" stroke="black" points="1115.72,-141.3 1105.72,-144.8 1115.72,-148.3 1115.72,-141.3"/>
</g>
<!-- AppComponent -->
<g id="node2" class="node">
<title>AppComponent</title>
<polygon fill="#ffffb3" stroke="black" points="1841.94,-84.8 1736.06,-84.8 1736.06,-48.8 1841.94,-48.8 1841.94,-84.8"/>
<text text-anchor="middle" x="1789" y="-62.6" font-family="Times,serif" font-size="14.00">AppComponent</text>
</g>
<!-- AppComponent&#45;&gt;AppModule -->
<g id="edge2" class="edge">
<title>AppComponent&#45;&gt;AppModule</title>
<path fill="none" stroke="black" d="M1789,-84.84C1789,-106.46 1789,-139.8 1789,-139.8 1789,-139.8 1115.85,-139.8 1115.85,-139.8"/>
<polygon fill="black" stroke="black" points="1115.85,-136.3 1105.85,-139.8 1115.85,-143.3 1115.85,-136.3"/>
</g>
<!-- MaterialModule  -->
<g id="node9" class="node">
<title>MaterialModule </title>
<polygon fill="#fb8072" stroke="black" points="1053.47,-214.8 942.53,-214.8 942.53,-178.8 1053.47,-178.8 1053.47,-214.8"/>
<text text-anchor="middle" x="998" y="-192.6" font-family="Times,serif" font-size="14.00">MaterialModule </text>
</g>
<!-- AppModule&#45;&gt;MaterialModule  -->
<g id="edge8" class="edge">
<title>AppModule&#45;&gt;MaterialModule </title>
<path fill="none" stroke="black" stroke-dasharray="5,2" d="M1037.7,-149.91C1037.7,-149.91 1037.7,-168.79 1037.7,-168.79"/>
<polygon fill="black" stroke="black" points="1034.2,-168.79 1037.7,-178.79 1041.2,-168.79 1034.2,-168.79"/>
</g>
<!-- AppComponent  -->
<g id="node10" class="node">
<title>AppComponent </title>
<polygon fill="#80b1d3" stroke="black" points="1185.44,-214.8 1076.56,-214.8 1076.56,-178.8 1185.44,-178.8 1185.44,-214.8"/>
<text text-anchor="middle" x="1131" y="-192.6" font-family="Times,serif" font-size="14.00">AppComponent </text>
</g>
<!-- AppModule&#45;&gt;AppComponent  -->
<g id="edge9" class="edge">
<title>AppModule&#45;&gt;AppComponent </title>
<path fill="none" stroke="black" stroke-dasharray="1,5" d="M1091.18,-149.91C1091.18,-149.91 1091.18,-168.79 1091.18,-168.79"/>
<polygon fill="black" stroke="black" points="1087.68,-168.79 1091.18,-178.79 1094.68,-168.79 1087.68,-168.79"/>
</g>
<!-- AppRoutingModule -->
<g id="node4" class="node">
<title>AppRoutingModule</title>
<polygon fill="#8dd3c7" stroke="black" points="1712.27,-84.8 1709.27,-88.8 1688.27,-88.8 1685.27,-84.8 1583.73,-84.8 1583.73,-48.8 1712.27,-48.8 1712.27,-84.8"/>
<text text-anchor="middle" x="1648" y="-62.6" font-family="Times,serif" font-size="14.00">AppRoutingModule</text>
</g>
<!-- AppRoutingModule&#45;&gt;AppModule -->
<g id="edge3" class="edge">
<title>AppRoutingModule&#45;&gt;AppModule</title>
<path fill="none" stroke="black" d="M1648,-85.02C1648,-105.17 1648,-134.8 1648,-134.8 1648,-134.8 1116,-134.8 1116,-134.8"/>
<polygon fill="black" stroke="black" points="1116,-131.3 1106,-134.8 1116,-138.3 1116,-131.3"/>
</g>
<!-- MaterialModule -->
<g id="node5" class="node">
<title>MaterialModule</title>
<polygon fill="#8dd3c7" stroke="black" points="1565.47,-84.8 1562.47,-88.8 1541.47,-88.8 1538.47,-84.8 1458.53,-84.8 1458.53,-48.8 1565.47,-48.8 1565.47,-84.8"/>
<text text-anchor="middle" x="1512" y="-62.6" font-family="Times,serif" font-size="14.00">MaterialModule</text>
</g>
<!-- MaterialModule&#45;&gt;AppModule -->
<g id="edge4" class="edge">
<title>MaterialModule&#45;&gt;AppModule</title>
<path fill="none" stroke="black" d="M1512,-85.02C1512,-103.63 1512,-129.8 1512,-129.8 1512,-129.8 1115.74,-129.8 1115.74,-129.8"/>
<polygon fill="black" stroke="black" points="1115.74,-126.3 1105.74,-129.8 1115.74,-133.3 1115.74,-126.3"/>
</g>
<!-- SharedModule -->
<g id="node6" class="node">
<title>SharedModule</title>
<polygon fill="#8dd3c7" stroke="black" points="1440.42,-84.8 1437.42,-88.8 1416.42,-88.8 1413.42,-84.8 1341.58,-84.8 1341.58,-48.8 1440.42,-48.8 1440.42,-84.8"/>
<text text-anchor="middle" x="1391" y="-62.6" font-family="Times,serif" font-size="14.00">SharedModule</text>
</g>
<!-- SharedModule&#45;&gt;AppModule -->
<g id="edge5" class="edge">
<title>SharedModule&#45;&gt;AppModule</title>
<path fill="none" stroke="black" d="M1391,-84.83C1391,-101.86 1391,-124.8 1391,-124.8 1391,-124.8 1115.75,-124.8 1115.75,-124.8"/>
<polygon fill="black" stroke="black" points="1115.75,-121.3 1105.75,-124.8 1115.75,-128.3 1115.75,-121.3"/>
</g>
<!-- Tab1PageModule -->
<g id="node7" class="node">
<title>Tab1PageModule</title>
<polygon fill="#8dd3c7" stroke="black" points="1323.53,-84.8 1320.53,-88.8 1299.53,-88.8 1296.53,-84.8 1208.47,-84.8 1208.47,-48.8 1323.53,-48.8 1323.53,-84.8"/>
<text text-anchor="middle" x="1266" y="-62.6" font-family="Times,serif" font-size="14.00">Tab1PageModule</text>
</g>
<!-- Tab1PageModule&#45;&gt;AppModule -->
<g id="edge6" class="edge">
<title>Tab1PageModule&#45;&gt;AppModule</title>
<path fill="none" stroke="black" d="M1266,-85.04C1266,-100.37 1266,-119.8 1266,-119.8 1266,-119.8 1115.85,-119.8 1115.85,-119.8"/>
<polygon fill="black" stroke="black" points="1115.85,-116.3 1105.85,-119.8 1115.85,-123.3 1115.85,-116.3"/>
</g>
<!-- Tab2PageModule -->
<g id="node8" class="node">
<title>Tab2PageModule</title>
<polygon fill="#8dd3c7" stroke="black" points="1189.53,-84.8 1186.53,-88.8 1165.53,-88.8 1162.53,-84.8 1074.47,-84.8 1074.47,-48.8 1189.53,-48.8 1189.53,-84.8"/>
<text text-anchor="middle" x="1132" y="-62.6" font-family="Times,serif" font-size="14.00">Tab2PageModule</text>
</g>
<!-- Tab2PageModule&#45;&gt;AppModule -->
<g id="edge7" class="edge">
<title>Tab2PageModule&#45;&gt;AppModule</title>
<path fill="none" stroke="black" d="M1090.03,-84.91C1090.03,-84.91 1090.03,-103.79 1090.03,-103.79"/>
<polygon fill="black" stroke="black" points="1086.53,-103.79 1090.03,-113.79 1093.53,-103.79 1086.53,-103.79"/>
</g>
<!-- BleService -->
<g id="node11" class="node">
<title>BleService</title>
<ellipse fill="#fdb462" stroke="black" cx="997" cy="-66.8" rx="53.31" ry="18"/>
<text text-anchor="middle" x="997" y="-62.6" font-family="Times,serif" font-size="14.00">BleService</text>
</g>
<!-- BleService&#45;&gt;AppModule -->
<g id="edge10" class="edge">
<title>BleService&#45;&gt;AppModule</title>
<path fill="none" stroke="black" d="M1036.29,-79.03C1036.29,-79.03 1036.29,-103.48 1036.29,-103.48"/>
<polygon fill="black" stroke="black" points="1032.79,-103.48 1036.29,-113.48 1039.79,-103.48 1032.79,-103.48"/>
</g>
<!-- GatewayService -->
<g id="node12" class="node">
<title>GatewayService</title>
<ellipse fill="#fdb462" stroke="black" cx="851" cy="-66.8" rx="74.11" ry="18"/>
<text text-anchor="middle" x="851" y="-62.6" font-family="Times,serif" font-size="14.00">GatewayService</text>
</g>
<!-- GatewayService&#45;&gt;AppModule -->
<g id="edge11" class="edge">
<title>GatewayService&#45;&gt;AppModule</title>
<path fill="none" stroke="black" d="M851,-85.04C851,-100.37 851,-119.8 851,-119.8 851,-119.8 1012.17,-119.8 1012.17,-119.8"/>
<polygon fill="black" stroke="black" points="1012.17,-123.3 1022.17,-119.8 1012.17,-116.3 1012.17,-123.3"/>
</g>
<!-- HttpErrorInterceptor -->
<g id="node13" class="node">
<title>HttpErrorInterceptor</title>
<ellipse fill="#fdb462" stroke="black" cx="668" cy="-66.8" rx="90.87" ry="18"/>
<text text-anchor="middle" x="668" y="-62.6" font-family="Times,serif" font-size="14.00">HttpErrorInterceptor</text>
</g>
<!-- HttpErrorInterceptor&#45;&gt;AppModule -->
<g id="edge12" class="edge">
<title>HttpErrorInterceptor&#45;&gt;AppModule</title>
<path fill="none" stroke="black" d="M668,-84.83C668,-101.86 668,-124.8 668,-124.8 668,-124.8 1012,-124.8 1012,-124.8"/>
<polygon fill="black" stroke="black" points="1012,-128.3 1022,-124.8 1012,-121.3 1012,-128.3"/>
</g>
<!-- InitService -->
<g id="node14" class="node">
<title>InitService</title>
<ellipse fill="#fdb462" stroke="black" cx="506" cy="-66.8" rx="53.31" ry="18"/>
<text text-anchor="middle" x="506" y="-62.6" font-family="Times,serif" font-size="14.00">InitService</text>
</g>
<!-- InitService&#45;&gt;AppModule -->
<g id="edge13" class="edge">
<title>InitService&#45;&gt;AppModule</title>
<path fill="none" stroke="black" d="M506,-85.02C506,-103.63 506,-129.8 506,-129.8 506,-129.8 1012.06,-129.8 1012.06,-129.8"/>
<polygon fill="black" stroke="black" points="1012.06,-133.3 1022.06,-129.8 1012.06,-126.3 1012.06,-133.3"/>
</g>
<!-- StorageService -->
<g id="node15" class="node">
<title>StorageService</title>
<ellipse fill="#fdb462" stroke="black" cx="365" cy="-66.8" rx="69.48" ry="18"/>
<text text-anchor="middle" x="365" y="-62.6" font-family="Times,serif" font-size="14.00">StorageService</text>
</g>
<!-- StorageService&#45;&gt;AppModule -->
<g id="edge14" class="edge">
<title>StorageService&#45;&gt;AppModule</title>
<path fill="none" stroke="black" d="M365,-85.02C365,-105.17 365,-134.8 365,-134.8 365,-134.8 1012.11,-134.8 1012.11,-134.8"/>
<polygon fill="black" stroke="black" points="1012.11,-138.3 1022.11,-134.8 1012.11,-131.3 1012.11,-138.3"/>
</g>
<!-- Tab1Service -->
<g id="node16" class="node">
<title>Tab1Service</title>
<ellipse fill="#fdb462" stroke="black" cx="218" cy="-66.8" rx="59.67" ry="18"/>
<text text-anchor="middle" x="218" y="-62.6" font-family="Times,serif" font-size="14.00">Tab1Service</text>
</g>
<!-- Tab1Service&#45;&gt;AppModule -->
<g id="edge15" class="edge">
<title>Tab1Service&#45;&gt;AppModule</title>
<path fill="none" stroke="black" d="M218,-84.84C218,-106.46 218,-139.8 218,-139.8 218,-139.8 1012.34,-139.8 1012.34,-139.8"/>
<polygon fill="black" stroke="black" points="1012.34,-143.3 1022.34,-139.8 1012.34,-136.3 1012.34,-143.3"/>
</g>
<!-- UserService -->
<g id="node17" class="node">
<title>UserService</title>
<ellipse fill="#fdb462" stroke="black" cx="82" cy="-66.8" rx="58.44" ry="18"/>
<text text-anchor="middle" x="82" y="-62.6" font-family="Times,serif" font-size="14.00">UserService</text>
</g>
<!-- UserService&#45;&gt;AppModule -->
<g id="edge16" class="edge">
<title>UserService&#45;&gt;AppModule</title>
<path fill="none" stroke="black" d="M82,-84.89C82,-107.93 82,-144.8 82,-144.8 82,-144.8 1012.12,-144.8 1012.12,-144.8"/>
<polygon fill="black" stroke="black" points="1012.12,-148.3 1022.12,-144.8 1012.12,-141.3 1012.12,-148.3"/>
</g>
</g>
</svg>
