<?xml version="1.0" encoding="UTF-8" standalone="no"?>
<!DOCTYPE svg PUBLIC "-//W3C//DTD SVG 1.1//EN"
 "http://www.w3.org/Graphics/SVG/1.1/DTD/svg11.dtd">
<!-- Generated by graphviz version 2.47.3 (20210619.1520)
 -->
<!-- Title: dependencies Pages: 1 -->
<svg width="587pt" height="247pt"
 viewBox="0.00 0.00 587.00 246.80" xmlns="http://www.w3.org/2000/svg" xmlns:xlink="http://www.w3.org/1999/xlink">
<g id="graph0" class="graph" transform="scale(1 1) rotate(0) translate(4 242.8)">
<title>dependencies</title>
<polygon fill="white" stroke="transparent" points="-4,4 -4,-242.8 583,-242.8 583,4 -4,4"/>
<text text-anchor="middle" x="289.5" y="-8.2" font-family="sans-serif" font-size="14.00">dependencies</text>
<g id="clust1" class="cluster">
<title>cluster_SigninModule</title>
<polygon fill="none" stroke="black" stroke-dasharray="1,5" points="8,-32.8 8,-230.8 571,-230.8 571,-32.8 8,-32.8"/>
</g>
<g id="clust6" class="cluster">
<title>cluster_SigninModule_exports</title>
<polygon fill="none" stroke="black" points="144,-170.8 144,-222.8 450,-222.8 450,-170.8 144,-170.8"/>
</g>
<g id="clust5" class="cluster">
<title>cluster_SigninModule_imports</title>
<polygon fill="none" stroke="black" points="330,-40.8 330,-92.8 563,-92.8 563,-40.8 330,-40.8"/>
</g>
<g id="clust2" class="cluster">
<title>cluster_SigninModule_declarations</title>
<polygon fill="none" stroke="black" points="16,-40.8 16,-92.8 322,-92.8 322,-40.8 16,-40.8"/>
</g>
<!-- SigninComponent -->
<g id="node1" class="node">
<title>SigninComponent</title>
<polygon fill="#ffffb3" stroke="black" points="313.9,-84.8 196.1,-84.8 196.1,-48.8 313.9,-48.8 313.9,-84.8"/>
<text text-anchor="middle" x="255" y="-62.6" font-family="Times,serif" font-size="14.00">SigninComponent</text>
</g>
<!-- SigninModule -->
<g id="node3" class="node">
<title>SigninModule</title>
<polygon fill="#8dd3c7" stroke="black" points="338.11,-149.8 335.11,-153.8 314.11,-153.8 311.11,-149.8 241.89,-149.8 241.89,-113.8 338.11,-113.8 338.11,-149.8"/>
<text text-anchor="middle" x="290" y="-127.6" font-family="Times,serif" font-size="14.00">SigninModule</text>
</g>
<!-- SigninComponent&#45;&gt;SigninModule -->
<g id="edge1" class="edge">
<title>SigninComponent&#45;&gt;SigninModule</title>
<path fill="none" stroke="black" d="M277.95,-84.91C277.95,-84.91 277.95,-103.79 277.95,-103.79"/>
<polygon fill="black" stroke="black" points="274.45,-103.79 277.95,-113.79 281.45,-103.79 274.45,-103.79"/>
</g>
<!-- SigninModalComponent -->
<g id="node2" class="node">
<title>SigninModalComponent</title>
<polygon fill="#ffffb3" stroke="black" points="178.45,-84.8 23.55,-84.8 23.55,-48.8 178.45,-48.8 178.45,-84.8"/>
<text text-anchor="middle" x="101" y="-62.6" font-family="Times,serif" font-size="14.00">SigninModalComponent</text>
</g>
<!-- SigninModalComponent&#45;&gt;SigninModule -->
<g id="edge2" class="edge">
<title>SigninModalComponent&#45;&gt;SigninModule</title>
<path fill="none" stroke="black" d="M165.26,-84.91C165.26,-104.14 165.26,-131.8 165.26,-131.8 165.26,-131.8 231.77,-131.8 231.77,-131.8"/>
<polygon fill="black" stroke="black" points="231.77,-135.3 241.77,-131.8 231.77,-128.3 231.77,-135.3"/>
</g>
<!-- ErrorModalComponent  -->
<g id="node6" class="node">
<title>ErrorModalComponent </title>
<polygon fill="#fb8072" stroke="black" points="442.42,-214.8 291.58,-214.8 291.58,-178.8 442.42,-178.8 442.42,-214.8"/>
<text text-anchor="middle" x="367" y="-192.6" font-family="Times,serif" font-size="14.00">ErrorModalComponent </text>
</g>
<!-- SigninModule&#45;&gt;ErrorModalComponent  -->
<g id="edge5" class="edge">
<title>SigninModule&#45;&gt;ErrorModalComponent </title>
<path fill="none" stroke="black" stroke-dasharray="5,2" d="M314.8,-149.91C314.8,-149.91 314.8,-168.79 314.8,-168.79"/>
<polygon fill="black" stroke="black" points="311.3,-168.79 314.8,-178.79 318.3,-168.79 311.3,-168.79"/>
</g>
<!-- SigninComponent  -->
<g id="node7" class="node">
<title>SigninComponent </title>
<polygon fill="#fb8072" stroke="black" points="273.9,-214.8 152.1,-214.8 152.1,-178.8 273.9,-178.8 273.9,-214.8"/>
<text text-anchor="middle" x="213" y="-192.6" font-family="Times,serif" font-size="14.00">SigninComponent </text>
</g>
<!-- SigninModule&#45;&gt;SigninComponent  -->
<g id="edge6" class="edge">
<title>SigninModule&#45;&gt;SigninComponent </title>
<path fill="none" stroke="black" stroke-dasharray="5,2" d="M257.82,-149.91C257.82,-149.91 257.82,-168.79 257.82,-168.79"/>
<polygon fill="black" stroke="black" points="254.32,-168.79 257.82,-178.79 261.32,-168.79 254.32,-168.79"/>
</g>
<!-- SharedModule -->
<g id="node4" class="node">
<title>SharedModule</title>
<polygon fill="#8dd3c7" stroke="black" points="555.42,-84.8 552.42,-88.8 531.42,-88.8 528.42,-84.8 456.58,-84.8 456.58,-48.8 555.42,-48.8 555.42,-84.8"/>
<text text-anchor="middle" x="506" y="-62.6" font-family="Times,serif" font-size="14.00">SharedModule</text>
</g>
<!-- SharedModule&#45;&gt;SigninModule -->
<g id="edge3" class="edge">
<title>SharedModule&#45;&gt;SigninModule</title>
<path fill="none" stroke="black" d="M506,-84.91C506,-104.14 506,-131.8 506,-131.8 506,-131.8 348.21,-131.8 348.21,-131.8"/>
<polygon fill="black" stroke="black" points="348.21,-128.3 338.21,-131.8 348.21,-135.3 348.21,-128.3"/>
</g>
<!-- WizardModule -->
<g id="node5" class="node">
<title>WizardModule</title>
<polygon fill="#8dd3c7" stroke="black" points="438.25,-84.8 435.25,-88.8 414.25,-88.8 411.25,-84.8 337.75,-84.8 337.75,-48.8 438.25,-48.8 438.25,-84.8"/>
<text text-anchor="middle" x="388" y="-62.6" font-family="Times,serif" font-size="14.00">WizardModule</text>
</g>
<!-- WizardModule&#45;&gt;SigninModule -->
<g id="edge4" class="edge">
<title>WizardModule&#45;&gt;SigninModule</title>
<path fill="none" stroke="black" d="M337.49,-66.8C330.57,-66.8 325.79,-66.8 325.79,-66.8 325.79,-66.8 325.79,-103.69 325.79,-103.69"/>
<polygon fill="black" stroke="black" points="322.29,-103.69 325.79,-113.69 329.29,-103.69 322.29,-103.69"/>
</g>
</g>
</svg>
