<svg xmlns="http://www.w3.org/2000/svg" width="141" height="141" viewBox="0 0 141 141" class="">
    <defs>
        <style>
            .cls-2{fill:#fbfbfb}.cls-3{fill:#ce564b}
        </style>
    </defs>
    <g id="target_svg_fixed" data-name="target svg fixed" opacity="0.192">
        <g id="Group_498" data-name="Group 498">
            <g id="Path_440-2">
                <path id="Path_443" d="M70.29 140.7a73.424 73.424 0 0 1-14.1-1.394 65.851 65.851 0 0 1-13.116-4.1 64.123 64.123 0 0 1-11.887-6.476 80.025 80.025 0 0 1-10.411-8.53 61.38 61.38 0 0 1-8.526-10.411 76.046 76.046 0 0 1-6.476-11.883A70.394 70.394 0 0 1 .2 70.608a67.488 67.488 0 0 1 1.476-14.1 65.85 65.85 0 0 1 4.1-13.116 64.122 64.122 0 0 1 6.476-11.887 80.022 80.022 0 0 1 8.526-10.411 61.38 61.38 0 0 1 10.411-8.526 76.046 76.046 0 0 1 11.885-6.476 69.369 69.369 0 0 1 13.116-4.1A67.434 67.434 0 0 1 70.29.6a73.424 73.424 0 0 1 14.1 1.394 65.851 65.851 0 0 1 13.116 4.1 64.122 64.122 0 0 1 11.887 6.476 80.021 80.021 0 0 1 10.407 8.524 64.773 64.773 0 0 1 8.526 10.411 76.051 76.051 0 0 1 6.476 11.887 69.373 69.373 0 0 1 4.1 13.116 67.437 67.437 0 0 1 1.394 14.1 73.427 73.427 0 0 1-1.394 14.1 65.854 65.854 0 0 1-4.1 13.116 64.127 64.127 0 0 1-6.476 11.887 80.024 80.024 0 0 1-8.526 10.411 64.772 64.772 0 0 1-10.411 8.526 76.045 76.045 0 0 1-11.887 6.476 69.37 69.37 0 0 1-13.116 4.1A67.487 67.487 0 0 1 70.29 140.7z" class="cls-2" data-name="Path 443" transform="translate(.21 -.108)"/>
                <path id="Path_444" d="M70.2.82a72.58 72.58 0 0 0-14.018 1.393 67.565 67.565 0 0 0-13.116 4.1 71.344 71.344 0 0 0-11.8 6.394 67.946 67.946 0 0 0-10.329 8.526 74.164 74.164 0 0 0-8.526 10.329 65.757 65.757 0 0 0-6.394 11.8 71.673 71.673 0 0 0-4.1 13.116 71.2 71.2 0 0 0 0 28.036 67.565 67.565 0 0 0 4.1 13.116 71.345 71.345 0 0 0 6.394 11.8 67.946 67.946 0 0 0 8.526 10.329 74.165 74.165 0 0 0 10.329 8.526 65.752 65.752 0 0 0 11.8 6.394 71.668 71.668 0 0 0 13.116 4.1 71.2 71.2 0 0 0 28.036 0 67.563 67.563 0 0 0 13.116-4.1 71.342 71.342 0 0 0 11.8-6.394 67.947 67.947 0 0 0 10.329-8.526 74.16 74.16 0 0 0 8.526-10.329 65.758 65.758 0 0 0 6.394-11.8 71.674 71.674 0 0 0 4.1-13.116 71.2 71.2 0 0 0 0-28.036 67.567 67.567 0 0 0-4.1-13.116 71.348 71.348 0 0 0-6.394-11.8 67.947 67.947 0 0 0-8.526-10.329 74.164 74.164 0 0 0-10.329-8.526 65.758 65.758 0 0 0-11.8-6.394 71.672 71.672 0 0 0-13.116-4.1A72.58 72.58 0 0 0 70.2.82m0-.82A70.5 70.5 0 1 1-.3 70.5 70.5 70.5 0 0 1 70.2 0z" class="cls-3" data-name="Path 444" transform="translate(.3)"/>
            </g>
        </g>
        <ellipse id="Ellipse_456" cx="53.367" cy="53.613" fill="#ce564b" opacity="0.791" rx="53.367" ry="53.613" transform="translate(17.158 16.92)"/>
        <circle id="Ellipse_457" cx="44.595" cy="44.595" r="44.595" class="cls-2" transform="rotate(-80.782 72.807 42.32)"/>
        <circle id="Ellipse_458" cx="31.561" cy="31.561" r="31.561" class="cls-3" transform="translate(38.964 38.972)"/>
        <circle id="Ellipse_459" cx="17.543" cy="17.543" r="17.543" class="cls-2" transform="translate(52.982 52.99)"/>
        <circle id="Ellipse_460" cx="10.27" cy="10.27" r="10.27" class="cls-3" transform="translate(60.254 60.263)"/>
        <path id="Rectangle_362" d="M0 0H2.787V50.088H0z" class="cls-2" transform="translate(68.721 2.984)"/>
        <path id="Rectangle_361" d="M0 0H50.334V2.787H0z" class="cls-2" transform="translate(3.304 68.401)"/>
        <path id="Rectangle_360" d="M0 0H51.481V2.787H0z" class="cls-2" transform="translate(86.592 68.401)"/>
        <path id="Path_439" d="M540.3 310.2h2.787v51.973H540.3z" class="cls-2" transform="translate(-471.579 -223.436)"/>
    </g>
</svg>