<?xml version="1.0" encoding="UTF-8" standalone="no"?>
<!DOCTYPE svg PUBLIC "-//W3C//DTD SVG 1.1//EN"
 "http://www.w3.org/Graphics/SVG/1.1/DTD/svg11.dtd">
<!-- Generated by graphviz version 2.47.3 (20210619.1520)
 -->
<!-- Title: dependencies Pages: 1 -->
<svg width="486pt" height="174pt"
 viewBox="0.00 0.00 486.00 173.80" xmlns="http://www.w3.org/2000/svg" xmlns:xlink="http://www.w3.org/1999/xlink">
<g id="graph0" class="graph" transform="scale(1 1) rotate(0) translate(4 169.8)">
<title>dependencies</title>
<polygon fill="white" stroke="transparent" points="-4,4 -4,-169.8 482,-169.8 482,4 -4,4"/>
<text text-anchor="middle" x="239" y="-8.2" font-family="sans-serif" font-size="14.00">dependencies</text>
<g id="clust1" class="cluster">
<title>cluster_Tab3PageModule</title>
<polygon fill="none" stroke="black" stroke-dasharray="1,5" points="8,-32.8 8,-157.8 470,-157.8 470,-32.8 8,-32.8"/>
</g>
<g id="clust4" class="cluster">
<title>cluster_Tab3PageModule_imports</title>
<polygon fill="none" stroke="black" points="348,-40.8 348,-92.8 462,-92.8 462,-40.8 348,-40.8"/>
</g>
<g id="clust7" class="cluster">
<title>cluster_Tab3PageModule_providers</title>
<polygon fill="none" stroke="black" points="186,-40.8 186,-92.8 340,-92.8 340,-40.8 186,-40.8"/>
</g>
<g id="clust2" class="cluster">
<title>cluster_Tab3PageModule_declarations</title>
<polygon fill="none" stroke="black" points="16,-40.8 16,-92.8 178,-92.8 178,-40.8 16,-40.8"/>
</g>
<!-- CDVPhotoLibraryPipe -->
<g id="node1" class="node">
<title>CDVPhotoLibraryPipe</title>
<polygon fill="#ffffb3" stroke="black" points="169.59,-84.8 24.41,-84.8 24.41,-48.8 169.59,-48.8 169.59,-84.8"/>
<text text-anchor="middle" x="97" y="-62.6" font-family="Times,serif" font-size="14.00">CDVPhotoLibraryPipe</text>
</g>
<!-- Tab3PageModule -->
<g id="node2" class="node">
<title>Tab3PageModule</title>
<polygon fill="#8dd3c7" stroke="black" points="320.53,-149.8 317.53,-153.8 296.53,-153.8 293.53,-149.8 205.47,-149.8 205.47,-113.8 320.53,-113.8 320.53,-149.8"/>
<text text-anchor="middle" x="263" y="-127.6" font-family="Times,serif" font-size="14.00">Tab3PageModule</text>
</g>
<!-- CDVPhotoLibraryPipe&#45;&gt;Tab3PageModule -->
<g id="edge1" class="edge">
<title>CDVPhotoLibraryPipe&#45;&gt;Tab3PageModule</title>
<path fill="none" stroke="black" d="M97,-84.91C97,-104.14 97,-131.8 97,-131.8 97,-131.8 195.41,-131.8 195.41,-131.8"/>
<polygon fill="black" stroke="black" points="195.41,-135.3 205.41,-131.8 195.41,-128.3 195.41,-135.3"/>
</g>
<!-- SharedModule -->
<g id="node3" class="node">
<title>SharedModule</title>
<polygon fill="#8dd3c7" stroke="black" points="454.42,-84.8 451.42,-88.8 430.42,-88.8 427.42,-84.8 355.58,-84.8 355.58,-48.8 454.42,-48.8 454.42,-84.8"/>
<text text-anchor="middle" x="405" y="-62.6" font-family="Times,serif" font-size="14.00">SharedModule</text>
</g>
<!-- SharedModule&#45;&gt;Tab3PageModule -->
<g id="edge2" class="edge">
<title>SharedModule&#45;&gt;Tab3PageModule</title>
<path fill="none" stroke="black" d="M405,-84.91C405,-104.14 405,-131.8 405,-131.8 405,-131.8 330.76,-131.8 330.76,-131.8"/>
<polygon fill="black" stroke="black" points="330.76,-128.3 320.76,-131.8 330.76,-135.3 330.76,-128.3"/>
</g>
<!-- StorageService -->
<g id="node4" class="node">
<title>StorageService</title>
<ellipse fill="#fdb462" stroke="black" cx="263" cy="-66.8" rx="69.48" ry="18"/>
<text text-anchor="middle" x="263" y="-62.6" font-family="Times,serif" font-size="14.00">StorageService</text>
</g>
<!-- StorageService&#45;&gt;Tab3PageModule -->
<g id="edge3" class="edge">
<title>StorageService&#45;&gt;Tab3PageModule</title>
<path fill="none" stroke="black" d="M263,-84.91C263,-84.91 263,-103.79 263,-103.79"/>
<polygon fill="black" stroke="black" points="259.5,-103.79 263,-113.79 266.5,-103.79 259.5,-103.79"/>
</g>
</g>
</svg>
