<?xml version="1.0" standalone="no"?>
<!DOCTYPE svg PUBLIC "-//W3C//DTD SVG 20010904//EN"
 "http://www.w3.org/TR/2001/REC-SVG-20010904/DTD/svg10.dtd">
<svg version="1.0" xmlns="http://www.w3.org/2000/svg"
 width="1280.000000pt" height="640.000000pt" viewBox="0 0 1280.000000 640.000000"
 preserveAspectRatio="xMidYMid meet">
<metadata>
Created by potrace 1.15, written by Peter Selinger 2001-2017
</metadata>
<g transform="translate(0.000000,640.000000) scale(0.100000,-0.100000)"
fill="#000000" stroke="none">
<path d="M6454 6068 c4 -44 9 -84 11 -88 3 -5 65 -43 137 -85 296 -173 2476
-1473 2495 -1487 9 -7 6 -18 -9 -44 -11 -19 -22 -34 -25 -34 -3 0 -1152 679
-2173 1285 -264 156 -511 298 -514 294 -2 -2 -10 -42 -19 -88 -9 -46 -19 -86
-21 -88 -5 -5 -173 55 -218 78 -21 11 -39 19 -42 19 -2 0 54 -79 127 -175 72
-96 136 -175 143 -175 12 0 844 -536 1886 -1214 l458 -298 -16 -29 c-8 -17
-21 -32 -28 -35 -10 -4 -1280 775 -1523 933 -22 15 -25 11 -123 -138 l-100
-154 109 -110 110 -110 -14 -195 c-8 -107 -14 -247 -15 -310 l0 -116 133 -121
134 -121 215 -3 c119 -2 219 -7 223 -10 3 -4 1 -154 -5 -335 l-10 -329 -40
-140 c-22 -77 -40 -148 -40 -158 0 -9 22 -48 50 -86 l50 -68 77 -7 c240 -20
426 -26 439 -15 8 7 37 40 64 74 50 62 50 63 50 136 0 39 -11 247 -26 461
l-25 389 61 68 c49 55 68 70 98 75 20 3 52 8 70 12 l32 6 0 -170 0 -171 155
-391 155 -392 0 -179 0 -180 -400 -859 c-220 -473 -400 -862 -400 -865 0 -3
225 -5 500 -5 275 0 500 2 500 4 0 2 11 82 25 178 34 232 62 465 75 623 l11
130 118 120 118 120 61 247 c34 136 62 250 62 252 0 3 -59 57 -132 121 l-132
115 -19 78 c-10 42 -43 193 -72 334 l-53 257 -99 118 c-223 265 -204 228 -227
441 l-14 124 40 85 c39 83 40 87 33 162 -3 42 -8 83 -11 91 -2 10 38 45 126
108 80 58 159 125 208 177 76 82 195 185 213 185 5 0 9 -39 9 -86 0 -80 -3
-93 -55 -219 -94 -229 -92 -226 -157 -249 -67 -24 -68 -27 -33 -124 22 -60 25
-86 25 -193 l0 -124 100 -64 c82 -52 121 -85 213 -186 95 -105 125 -146 202
-281 50 -87 118 -212 151 -278 l62 -120 29 47 29 47 187 -126 c103 -69 187
-131 187 -137 0 -5 -53 -80 -117 -166 l-118 -156 -37 -145 c-36 -136 -96 -371
-301 -1170 -46 -179 -87 -335 -91 -347 -7 -23 -6 -23 86 -23 l94 0 148 653
c81 358 163 717 183 797 l35 145 105 142 c57 79 107 143 111 142 4 0 319 -430
701 -956 635 -875 695 -954 708 -937 24 33 852 1441 855 1454 2 7 -16 26 -38
41 -37 26 -649 381 -1198 695 -201 115 -215 125 -409 295 -158 139 -216 198
-274 275 l-73 98 6 180 c7 218 -7 409 -34 446 -9 14 -56 44 -104 67 l-86 42
-36 95 c-34 86 -43 100 -98 148 -52 45 -69 54 -111 58 l-49 5 -39 100 -39 100
-84 48 -84 48 -56 -25 -56 -25 -23 37 c-13 20 -68 111 -122 201 -58 95 -108
166 -120 171 -12 4 -54 11 -95 15 l-75 7 -165 -107 c-91 -59 -179 -114 -195
-122 l-31 -15 -344 200 c-190 110 -785 457 -1324 771 -538 314 -981 571 -984
571 -3 0 -2 -37 2 -82z m3144 -1329 c27 -9 89 -75 171 -181 7 -9 23 -69 36
-132 21 -107 21 -119 8 -195 -12 -71 -20 -91 -62 -149 -36 -49 -55 -89 -73
-150 -19 -69 -30 -90 -66 -125 -47 -46 -50 -45 -72 24 -10 31 -11 47 -1 79 11
38 14 40 51 40 28 0 40 5 44 18 15 47 26 171 26 295 l0 137 -53 73 c-29 39
-69 99 -89 132 l-36 59 31 43 c33 47 38 49 85 32z m591 -500 l51 -80 0 -107
c0 -100 -2 -111 -41 -211 -23 -59 -48 -144 -56 -195 -13 -81 -18 -94 -60 -148
-52 -66 -52 -66 -83 29 -20 57 -21 87 -23 385 l-2 323 24 33 c27 38 51 50 102
51 35 1 39 -3 88 -80z m-2777 -90 l167 -130 -31 -89 -31 -88 -73 -51 c-40 -28
-75 -55 -78 -59 -2 -4 2 -22 10 -41 14 -33 14 -33 66 -26 112 14 120 19 265
185 l31 35 54 -38 c64 -45 108 -83 108 -94 0 -4 -12 -47 -26 -95 l-27 -86 -56
-16 c-39 -11 -98 -16 -182 -16 l-124 0 -144 124 c-80 67 -148 133 -152 144 -5
12 -11 65 -15 119 -6 89 -3 110 25 222 17 69 31 126 31 128 0 12 36 -13 182
-128z m3012 -135 c8 -3 29 -40 47 -82 29 -70 31 -83 26 -152 -4 -41 -18 -113
-32 -160 -14 -47 -33 -121 -41 -165 -21 -113 -40 -166 -78 -219 -39 -55 -197
-229 -202 -223 -3 2 3 37 11 78 9 41 19 144 22 229 4 133 9 168 34 246 15 51
47 165 69 255 23 90 46 169 51 176 6 6 25 14 42 16 18 2 33 5 34 5 1 1 8 -1
17 -4z m275 -426 c33 -67 34 -68 21 -130 -6 -34 -20 -78 -30 -98 -10 -20 -20
-72 -24 -119 -4 -51 -12 -89 -20 -95 -7 -6 -19 -33 -25 -60 -16 -65 -29 -88
-94 -172 -44 -55 -64 -73 -96 -82 -22 -7 -49 -24 -59 -37 -24 -30 -61 -32 -93
-6 l-24 19 24 26 c13 14 42 31 65 39 70 22 83 61 115 349 6 50 21 112 36 147
14 33 25 75 25 92 0 59 32 139 68 170 50 45 71 37 111 -43z"/>
<path d="M5055 5411 c-82 -70 -392 -330 -688 -579 l-538 -453 -105 98 c-105
98 -107 98 -247 154 l-142 57 -85 -84 c-83 -81 -88 -89 -135 -204 l-50 -120
-74 0 c-73 0 -75 -1 -148 -52 -71 -51 -77 -58 -128 -159 -52 -103 -55 -106
-93 -112 -29 -5 -55 -22 -103 -66 -64 -58 -66 -62 -94 -158 -36 -126 -44 -141
-99 -183 -29 -23 -57 -58 -79 -100 -34 -63 -35 -69 -40 -215 -4 -91 -2 -168 4
-195 6 -25 16 -75 24 -112 l13 -68 -411 -377 c-226 -208 -436 -401 -467 -429
l-55 -52 -110 123 c-61 68 -115 124 -120 124 -6 1 -42 -30 -79 -68 -63 -63
-68 -72 -55 -88 8 -10 53 -63 100 -118 47 -55 121 -144 164 -198 l78 -98 -109
-110 c-193 -195 -514 -494 -542 -505 -15 -7 -49 -17 -76 -23 -41 -10 -91 -45
-308 -217 -248 -198 -258 -207 -245 -228 7 -11 48 -75 90 -141 41 -66 82 -129
90 -139 13 -18 28 -8 274 188 l259 206 40 81 c43 89 43 90 547 558 l208 194
56 -62 c30 -34 61 -60 68 -57 7 2 189 139 406 303 217 165 417 316 445 336
l51 37 39 -42 c22 -24 112 -132 202 -240 l162 -198 71 -202 c214 -613 215
-614 259 -849 22 -123 43 -232 46 -241 4 -14 17 -18 60 -18 l56 0 -7 33 c-45
214 -127 501 -246 863 l-141 428 -193 251 c-105 137 -198 260 -206 273 -16 26
-38 5 205 194 83 65 154 118 159 118 4 0 11 -10 16 -22 5 -13 26 -59 47 -103
l37 -80 12 62 c9 47 22 74 50 109 l38 46 -28 57 c-24 51 -34 61 -86 87 l-59
29 46 53 47 54 68 -68 c38 -37 70 -66 72 -63 3 3 164 257 299 471 16 26 44 56
61 67 42 26 78 66 110 123 24 41 27 57 27 138 0 91 0 92 41 150 23 32 38 63
35 69 -4 5 -43 29 -87 53 -71 38 -90 54 -156 136 -82 102 -102 141 -128 247
-15 58 -16 77 -6 113 7 23 15 42 20 42 4 0 52 -45 106 -100 91 -93 102 -101
159 -116 53 -13 257 -119 316 -164 16 -12 23 -38 35 -130 8 -63 24 -146 35
-185 21 -70 21 -71 4 -280 l-17 -210 -91 -98 c-134 -145 -209 -271 -245 -413
-17 -66 -19 -99 -14 -204 l5 -125 -91 -129 c-50 -71 -91 -132 -91 -135 0 -10
119 -472 146 -566 l26 -91 69 -39 c39 -22 76 -46 82 -53 7 -8 71 -210 142
-450 l131 -437 467 -3 c270 -1 467 2 467 7 0 8 -229 399 -803 1369 -125 211
-227 391 -227 401 0 56 62 346 83 388 39 77 105 235 169 407 l60 160 -17 176
c-9 96 -29 276 -46 399 -28 215 -29 225 -12 242 10 9 252 216 538 460 775 660
1017 869 1008 869 -4 -1 -71 -23 -148 -50 -77 -26 -142 -47 -146 -44 -4 2 -15
36 -24 74 -14 57 -23 75 -49 94 -43 32 -141 86 -155 86 -7 0 -278 -217 -603
-482 -324 -266 -628 -514 -675 -552 l-84 -69 -27 26 c-26 27 -26 27 -7 46 11
10 297 240 635 511 669 537 780 628 780 640 0 4 -20 11 -45 14 -24 4 -64 18
-87 31 l-43 23 -150 -127z m22 -482 c16 -14 25 -78 16 -110 -8 -27 -78 -89
-463 -415 -376 -318 -344 -294 -401 -294 -28 0 -59 4 -69 10 -17 9 -40 58 -40
85 0 6 39 45 88 85 205 174 315 261 308 244 -27 -69 -14 -104 36 -104 87 0
198 103 198 184 0 31 -32 50 -71 42 -16 -3 -29 -4 -29 -3 0 2 29 26 64 55 l64
51 -5 -39 c-5 -32 -2 -40 16 -50 28 -14 74 0 130 40 48 35 73 80 69 123 -3 28
-7 33 -38 37 l-35 5 50 38 c50 38 79 42 112 16z m-1572 -461 c-10 -46 -12 -48
-48 -48 -30 -1 -36 -8 -91 -102 -57 -99 -58 -103 -52 -157 3 -31 30 -130 60
-220 51 -155 56 -165 90 -184 49 -29 61 -62 45 -131 -7 -31 -16 -56 -20 -56
-10 0 -153 191 -260 347 l-81 118 7 84 c5 61 17 113 49 200 23 64 46 128 49
143 8 32 19 35 155 37 l104 1 -7 -32z m-499 -380 c31 -19 56 -42 59 -53 11
-56 46 -672 40 -703 -9 -47 -45 -132 -56 -132 -17 0 -112 147 -169 260 -55
111 -58 119 -73 247 -14 121 -14 141 0 228 16 93 17 96 64 140 27 25 56 45 65
45 9 0 40 -15 70 -32z m-314 -319 c11 -14 37 -97 58 -185 21 -88 56 -204 78
-259 40 -98 62 -207 62 -301 0 -29 10 -65 29 -102 38 -76 44 -107 26 -122 -11
-9 -23 -9 -52 0 -73 24 -106 68 -237 321 -105 203 -126 275 -127 427 0 127 16
180 73 227 37 31 64 29 90 -6z m-257 -363 c34 -15 35 -16 35 -74 0 -50 8 -75
49 -163 56 -120 102 -238 156 -395 l37 -112 38 -6 c51 -8 86 -43 95 -96 8 -50
1 -58 -50 -52 -23 3 -39 12 -46 26 -18 33 -51 66 -68 66 -9 0 -27 9 -41 20
-14 11 -34 20 -45 20 -11 0 -31 7 -44 16 -33 23 -117 204 -137 294 -9 41 -25
92 -36 114 -11 21 -30 70 -43 109 -21 66 -22 74 -9 135 13 60 43 112 66 112 5
0 24 -7 43 -14z m-81 -738 c13 -18 23 -35 20 -39 -13 -22 -879 -759 -891 -759
-13 1 -45 49 -41 64 3 14 865 766 878 766 5 0 20 -14 34 -32z m100 -129 c22
-17 26 -28 26 -74 l0 -53 -72 -65 c-40 -36 -224 -194 -408 -351 l-335 -287
-53 4 c-63 5 -90 26 -99 81 -5 32 -2 42 15 55 11 9 48 38 81 64 l60 48 -34
-52 c-37 -54 -44 -99 -20 -119 23 -19 99 -6 145 24 78 52 132 158 97 193 -20
20 -81 19 -113 -2 -58 -38 -27 -4 66 73 95 78 117 90 85 48 -8 -11 -15 -37
-15 -58 0 -31 5 -40 22 -47 77 -28 224 77 244 176 9 46 -25 77 -74 68 -22 -4
-33 -3 -27 2 35 31 132 111 142 117 6 3 0 -14 -14 -40 -21 -38 -24 -50 -14
-70 9 -20 18 -24 53 -24 66 0 143 53 179 122 44 87 0 129 -96 92 -24 -9 21 30
80 69 48 32 46 32 79 6z"/>
<path d="M4395 4410 c-68 -15 -164 -106 -180 -172 -29 -116 156 -76 237 51 52
83 26 139 -57 121z"/>
<path d="M6280 5388 c-16 -22 -30 -44 -30 -47 0 -14 588 -731 598 -730 4 0 53
66 109 147 l102 147 -27 23 c-15 12 -182 124 -372 248 -198 130 -344 232 -344
240 3 22 -4 17 -36 -28z"/>
</g>
</svg>
